<svg  viewBox="0 0 970 678" fill="none" xmlns="http://www.w3.org/2000/svg">
<path d="M241.665 147.781H145.996C145.321 147.781 144.757 148.295 144.694 148.967L135.134 250.939C135.062 251.706 135.665 252.369 136.436 252.369H251.225C251.995 252.369 252.599 251.706 252.527 250.939L242.967 148.967C242.904 148.295 242.34 147.781 241.665 147.781Z" fill="white" fill-opacity="0.05" stroke="#8F8F8F" stroke-width="2.61468" stroke-linecap="round"/>
<path d="M184.852 294.694H180.176V293.35L184.628 286.798H186.392V293.266H187.568V294.694H186.392V296.738H184.852V294.694ZM184.852 293.266V288.912L181.87 293.266H184.852ZM192.252 296.962C191.58 296.962 190.992 296.841 190.488 296.598C189.984 296.356 189.588 296.02 189.298 295.59C189.009 295.161 188.841 294.671 188.794 294.12L190.418 294.036C190.474 294.522 190.661 294.89 190.978 295.142C191.296 295.394 191.72 295.52 192.252 295.52C192.84 295.52 193.298 295.343 193.624 294.988C193.951 294.624 194.114 294.13 194.114 293.504C194.114 292.888 193.946 292.398 193.61 292.034C193.284 291.661 192.836 291.474 192.266 291.474C191.902 291.474 191.562 291.568 191.244 291.754C190.927 291.932 190.698 292.174 190.558 292.482L188.934 292.454L189.62 286.798H195.234V288.226H190.964L190.544 291.586L190.278 291.39C190.502 290.989 190.82 290.676 191.23 290.452C191.641 290.228 192.08 290.116 192.546 290.116C193.181 290.116 193.741 290.266 194.226 290.564C194.712 290.854 195.085 291.255 195.346 291.768C195.608 292.282 195.738 292.86 195.738 293.504C195.738 294.186 195.594 294.788 195.304 295.31C195.015 295.833 194.604 296.239 194.072 296.528C193.54 296.818 192.934 296.962 192.252 296.962ZM196.909 289.262H198.225L198.281 290.928L198.099 290.886C198.202 290.326 198.398 289.888 198.687 289.57C198.986 289.253 199.345 289.094 199.765 289.094C200.194 289.094 200.526 289.248 200.759 289.556C201.002 289.864 201.16 290.331 201.235 290.956H201.053C201.146 290.368 201.338 289.911 201.627 289.584C201.916 289.258 202.285 289.094 202.733 289.094C203.321 289.094 203.746 289.309 204.007 289.738C204.278 290.158 204.413 290.835 204.413 291.768V296.738H202.929V291.964C202.929 291.386 202.873 290.98 202.761 290.746C202.649 290.504 202.472 290.382 202.229 290.382C202.052 290.382 201.902 290.443 201.781 290.564C201.66 290.676 201.566 290.849 201.501 291.082C201.436 291.316 201.403 291.614 201.403 291.978V296.738H199.919V291.964C199.919 291.395 199.863 290.989 199.751 290.746C199.648 290.504 199.471 290.382 199.219 290.382C199.042 290.382 198.892 290.443 198.771 290.564C198.65 290.676 198.556 290.849 198.491 291.082C198.426 291.316 198.393 291.614 198.393 291.978V296.738H196.909V289.262ZM205.303 289.262H206.619L206.675 290.928L206.493 290.886C206.596 290.326 206.792 289.888 207.081 289.57C207.38 289.253 207.739 289.094 208.159 289.094C208.589 289.094 208.92 289.248 209.153 289.556C209.396 289.864 209.555 290.331 209.629 290.956H209.447C209.541 290.368 209.732 289.911 210.021 289.584C210.311 289.258 210.679 289.094 211.127 289.094C211.715 289.094 212.14 289.309 212.401 289.738C212.672 290.158 212.807 290.835 212.807 291.768V296.738H211.323V291.964C211.323 291.386 211.267 290.98 211.155 290.746C211.043 290.504 210.866 290.382 210.623 290.382C210.446 290.382 210.297 290.443 210.175 290.564C210.054 290.676 209.961 290.849 209.895 291.082C209.83 291.316 209.797 291.614 209.797 291.978V296.738H208.313V291.964C208.313 291.395 208.257 290.989 208.145 290.746C208.043 290.504 207.865 290.382 207.613 290.382C207.436 290.382 207.287 290.443 207.165 290.564C207.044 290.676 206.951 290.849 206.885 291.082C206.82 291.316 206.787 291.614 206.787 291.978V296.738H205.303V289.262Z" fill="#BA2471"/>
<path d="M150.604 480C150.604 478.507 150.903 477.027 151.5 475.562C152.097 474.097 152.933 472.739 154.006 471.488H148.784V470.06H155.616V471.404C154.412 472.767 153.535 474.125 152.984 475.478C152.433 476.822 152.158 478.329 152.158 480H150.604ZM156.843 472.524H158.159L158.215 474.19L158.033 474.148C158.135 473.588 158.331 473.149 158.621 472.832C158.919 472.515 159.279 472.356 159.699 472.356C160.128 472.356 160.459 472.51 160.693 472.818C160.935 473.126 161.094 473.593 161.169 474.218H160.987C161.08 473.63 161.271 473.173 161.561 472.846C161.85 472.519 162.219 472.356 162.667 472.356C163.255 472.356 163.679 472.571 163.941 473C164.211 473.42 164.347 474.097 164.347 475.03V480H162.863V475.226C162.863 474.647 162.807 474.241 162.695 474.008C162.583 473.765 162.405 473.644 162.163 473.644C161.985 473.644 161.836 473.705 161.715 473.826C161.593 473.938 161.5 474.111 161.435 474.344C161.369 474.577 161.337 474.876 161.337 475.24V480H159.853V475.226C159.853 474.657 159.797 474.251 159.685 474.008C159.582 473.765 159.405 473.644 159.153 473.644C158.975 473.644 158.826 473.705 158.705 473.826C158.583 473.938 158.49 474.111 158.425 474.344C158.359 474.577 158.327 474.876 158.327 475.24V480H156.843V472.524ZM165.237 472.524H166.553L166.609 474.19L166.427 474.148C166.53 473.588 166.726 473.149 167.015 472.832C167.314 472.515 167.673 472.356 168.093 472.356C168.522 472.356 168.854 472.51 169.087 472.818C169.33 473.126 169.488 473.593 169.563 474.218H169.381C169.474 473.63 169.666 473.173 169.955 472.846C170.244 472.519 170.613 472.356 171.061 472.356C171.649 472.356 172.074 472.571 172.335 473C172.606 473.42 172.741 474.097 172.741 475.03V480H171.257V475.226C171.257 474.647 171.201 474.241 171.089 474.008C170.977 473.765 170.8 473.644 170.557 473.644C170.38 473.644 170.23 473.705 170.109 473.826C169.988 473.938 169.894 474.111 169.829 474.344C169.764 474.577 169.731 474.876 169.731 475.24V480H168.247V475.226C168.247 474.657 168.191 474.251 168.079 474.008C167.976 473.765 167.799 473.644 167.547 473.644C167.37 473.644 167.22 473.705 167.099 473.826C166.978 473.938 166.884 474.111 166.819 474.344C166.754 474.577 166.721 474.876 166.721 475.24V480H165.237V472.524Z" fill="#BA2471"/>
<path d="M151.92 619.242V609.06H153.153V618.148H157.886V619.242H151.92ZM162.698 619.401C161.962 619.401 161.328 619.239 160.794 618.914C160.264 618.586 159.854 618.129 159.566 617.542C159.281 616.952 159.138 616.266 159.138 615.484C159.138 614.701 159.281 614.012 159.566 613.415C159.854 612.816 160.255 612.348 160.769 612.013C161.286 611.675 161.889 611.506 162.579 611.506C162.976 611.506 163.369 611.573 163.757 611.705C164.145 611.838 164.498 612.053 164.816 612.352C165.134 612.647 165.388 613.038 165.577 613.525C165.766 614.012 165.86 614.612 165.86 615.325V615.822H159.974V614.808H164.667C164.667 614.377 164.581 613.992 164.408 613.654C164.239 613.316 163.997 613.049 163.682 612.854C163.371 612.658 163.003 612.56 162.579 612.56C162.111 612.56 161.707 612.676 161.366 612.908C161.028 613.137 160.767 613.435 160.585 613.803C160.403 614.171 160.312 614.566 160.312 614.987V615.663C160.312 616.239 160.411 616.728 160.61 617.129C160.812 617.527 161.092 617.83 161.45 618.039C161.808 618.245 162.224 618.347 162.698 618.347C163.006 618.347 163.285 618.304 163.533 618.218C163.785 618.129 164.002 617.996 164.185 617.82C164.367 617.641 164.508 617.419 164.607 617.154L165.741 617.472C165.621 617.857 165.421 618.195 165.139 618.487C164.857 618.775 164.509 619 164.095 619.163C163.681 619.322 163.215 619.401 162.698 619.401ZM170.905 611.606V612.6H166.789V611.606H170.905ZM168.022 619.242V610.552C168.022 610.114 168.125 609.75 168.33 609.458C168.536 609.166 168.802 608.948 169.131 608.802C169.459 608.656 169.805 608.583 170.17 608.583C170.458 608.583 170.693 608.606 170.876 608.653C171.058 608.699 171.194 608.742 171.283 608.782L170.945 609.796C170.885 609.776 170.803 609.751 170.697 609.722C170.594 609.692 170.458 609.677 170.289 609.677C169.901 609.677 169.621 609.775 169.449 609.97C169.28 610.166 169.195 610.452 169.195 610.83V619.242H168.022ZM175.731 611.606V612.6H171.773V611.606H175.731ZM172.927 609.776H174.1V617.055C174.1 617.386 174.148 617.635 174.244 617.8C174.344 617.963 174.47 618.072 174.622 618.129C174.778 618.182 174.942 618.208 175.114 618.208C175.244 618.208 175.35 618.201 175.432 618.188C175.515 618.172 175.582 618.158 175.631 618.148L175.87 619.202C175.79 619.232 175.679 619.262 175.537 619.292C175.394 619.325 175.214 619.342 174.995 619.342C174.664 619.342 174.339 619.27 174.021 619.128C173.706 618.985 173.444 618.768 173.235 618.477C173.03 618.185 172.927 617.817 172.927 617.373V609.776ZM187.397 611.606L184.574 619.242H183.38L180.557 611.606H181.829L183.937 617.691H184.017L186.125 611.606H187.397ZM190.821 619.421C190.337 619.421 189.898 619.33 189.503 619.148C189.109 618.962 188.796 618.695 188.564 618.347C188.332 617.996 188.216 617.572 188.216 617.075C188.216 616.637 188.302 616.282 188.474 616.011C188.647 615.736 188.877 615.52 189.165 615.364C189.454 615.209 189.772 615.093 190.12 615.016C190.471 614.937 190.824 614.874 191.179 614.827C191.643 614.768 192.019 614.723 192.307 614.693C192.599 614.66 192.811 614.605 192.944 614.529C193.08 614.453 193.148 614.32 193.148 614.131V614.092C193.148 613.601 193.013 613.22 192.745 612.948C192.48 612.676 192.077 612.54 191.537 612.54C190.977 612.54 190.537 612.663 190.219 612.908C189.901 613.154 189.677 613.415 189.548 613.694L188.435 613.296C188.633 612.832 188.899 612.471 189.23 612.212C189.565 611.951 189.929 611.768 190.324 611.665C190.721 611.559 191.113 611.506 191.497 611.506C191.742 611.506 192.024 611.536 192.342 611.596C192.664 611.652 192.974 611.77 193.272 611.949C193.573 612.128 193.824 612.398 194.023 612.759C194.221 613.121 194.321 613.604 194.321 614.211V619.242H193.148V618.208H193.088C193.008 618.374 192.876 618.551 192.69 618.74C192.505 618.929 192.258 619.09 191.949 619.222C191.641 619.355 191.265 619.421 190.821 619.421ZM191 618.367C191.464 618.367 191.855 618.276 192.173 618.094C192.495 617.911 192.737 617.676 192.899 617.388C193.065 617.099 193.148 616.796 193.148 616.478V615.404C193.098 615.464 192.988 615.518 192.819 615.568C192.654 615.615 192.461 615.656 192.243 615.692C192.027 615.726 191.817 615.755 191.611 615.782C191.409 615.805 191.245 615.825 191.119 615.842C190.814 615.881 190.529 615.946 190.264 616.036C190.002 616.122 189.79 616.253 189.628 616.428C189.469 616.601 189.389 616.836 189.389 617.134C189.389 617.542 189.54 617.85 189.841 618.059C190.146 618.264 190.533 618.367 191 618.367ZM196.322 619.242V611.606H197.456V612.759H197.535C197.675 612.381 197.927 612.075 198.291 611.839C198.656 611.604 199.067 611.487 199.524 611.487C199.61 611.487 199.718 611.488 199.847 611.491C199.976 611.495 200.074 611.5 200.141 611.506V612.7C200.101 612.69 200.01 612.675 199.867 612.655C199.728 612.632 199.58 612.62 199.425 612.62C199.053 612.62 198.722 612.698 198.43 612.854C198.142 613.006 197.913 613.218 197.744 613.49C197.579 613.759 197.496 614.065 197.496 614.41V619.242H196.322ZM201.391 619.242V611.606H202.565V619.242H201.391ZM201.988 610.333C201.759 610.333 201.562 610.255 201.396 610.099C201.234 609.944 201.153 609.756 201.153 609.538C201.153 609.319 201.234 609.132 201.396 608.976C201.562 608.82 201.759 608.742 201.988 608.742C202.217 608.742 202.412 608.82 202.575 608.976C202.74 609.132 202.823 609.319 202.823 609.538C202.823 609.756 202.74 609.944 202.575 610.099C202.412 610.255 202.217 610.333 201.988 610.333ZM206.821 619.421C206.337 619.421 205.898 619.33 205.503 619.148C205.109 618.962 204.796 618.695 204.564 618.347C204.332 617.996 204.216 617.572 204.216 617.075C204.216 616.637 204.302 616.282 204.474 616.011C204.647 615.736 204.877 615.52 205.165 615.364C205.454 615.209 205.772 615.093 206.12 615.016C206.471 614.937 206.824 614.874 207.179 614.827C207.643 614.768 208.019 614.723 208.307 614.693C208.599 614.66 208.811 614.605 208.944 614.529C209.08 614.453 209.147 614.32 209.147 614.131V614.092C209.147 613.601 209.013 613.22 208.745 612.948C208.48 612.676 208.077 612.54 207.537 612.54C206.977 612.54 206.537 612.663 206.219 612.908C205.901 613.154 205.677 613.415 205.548 613.694L204.434 613.296C204.633 612.832 204.898 612.471 205.23 612.212C205.565 611.951 205.929 611.768 206.324 611.665C206.721 611.559 207.112 611.506 207.497 611.506C207.742 611.506 208.024 611.536 208.342 611.596C208.664 611.652 208.973 611.77 209.272 611.949C209.573 612.128 209.824 612.398 210.022 612.759C210.221 613.121 210.321 613.604 210.321 614.211V619.242H209.147V618.208H209.088C209.008 618.374 208.876 618.551 208.69 618.74C208.505 618.929 208.258 619.09 207.949 619.222C207.641 619.355 207.265 619.421 206.821 619.421ZM207 618.367C207.464 618.367 207.855 618.276 208.173 618.094C208.495 617.911 208.737 617.676 208.899 617.388C209.065 617.099 209.147 616.796 209.147 616.478V615.404C209.098 615.464 208.988 615.518 208.819 615.568C208.654 615.615 208.461 615.656 208.243 615.692C208.027 615.726 207.817 615.755 207.611 615.782C207.409 615.805 207.245 615.825 207.119 615.842C206.814 615.881 206.529 615.946 206.264 616.036C206.002 616.122 205.79 616.253 205.628 616.428C205.469 616.601 205.389 616.836 205.389 617.134C205.389 617.542 205.54 617.85 205.841 618.059C206.146 618.264 206.532 618.367 207 618.367ZM213.496 614.648V619.242H212.322V611.606H213.456V612.799H213.555C213.734 612.411 214.006 612.1 214.371 611.864C214.735 611.626 215.206 611.506 215.783 611.506C216.3 611.506 216.752 611.612 217.14 611.825C217.528 612.033 217.829 612.352 218.045 612.779C218.26 613.203 218.368 613.74 218.368 614.39V619.242H217.194V614.469C217.194 613.87 217.039 613.402 216.727 613.067C216.416 612.729 215.988 612.56 215.444 612.56C215.07 612.56 214.735 612.642 214.44 612.804C214.149 612.966 213.918 613.203 213.749 613.515C213.58 613.826 213.496 614.204 213.496 614.648ZM223.693 611.606V612.6H219.735V611.606H223.693ZM220.889 609.776H222.062V617.055C222.062 617.386 222.11 617.635 222.206 617.8C222.306 617.963 222.432 618.072 222.584 618.129C222.74 618.182 222.904 618.208 223.076 618.208C223.206 618.208 223.312 618.201 223.394 618.188C223.477 618.172 223.544 618.158 223.593 618.148L223.832 619.202C223.752 619.232 223.641 619.262 223.499 619.292C223.356 619.325 223.176 619.342 222.957 619.342C222.626 619.342 222.301 619.27 221.983 619.128C221.668 618.985 221.406 618.768 221.197 618.477C220.992 618.185 220.889 617.817 220.889 617.373V609.776Z" fill="#8F8F8F"/>
<path d="M338.545 611.606V612.6H334.428V611.606H338.545ZM335.661 619.242V610.552C335.661 610.114 335.764 609.75 335.969 609.458C336.175 609.166 336.442 608.948 336.77 608.802C337.098 608.656 337.444 608.583 337.809 608.583C338.097 608.583 338.333 608.606 338.515 608.653C338.697 608.699 338.833 608.742 338.923 608.782L338.585 609.796C338.525 609.776 338.442 609.751 338.336 609.722C338.233 609.692 338.097 609.677 337.928 609.677C337.54 609.677 337.26 609.775 337.088 609.97C336.919 610.166 336.835 610.452 336.835 610.83V619.242H335.661ZM342.837 619.401C342.148 619.401 341.543 619.237 341.022 618.909C340.505 618.581 340.101 618.122 339.809 617.532C339.521 616.942 339.377 616.253 339.377 615.464C339.377 614.668 339.521 613.974 339.809 613.381C340.101 612.787 340.505 612.327 341.022 611.999C341.543 611.67 342.148 611.506 342.837 611.506C343.526 611.506 344.13 611.67 344.647 611.999C345.167 612.327 345.571 612.787 345.86 613.381C346.151 613.974 346.297 614.668 346.297 615.464C346.297 616.253 346.151 616.942 345.86 617.532C345.571 618.122 345.167 618.581 344.647 618.909C344.13 619.237 343.526 619.401 342.837 619.401ZM342.837 618.347C343.361 618.347 343.791 618.213 344.13 617.945C344.468 617.676 344.718 617.323 344.88 616.886C345.043 616.448 345.124 615.974 345.124 615.464C345.124 614.953 345.043 614.478 344.88 614.037C344.718 613.596 344.468 613.24 344.13 612.968C343.791 612.696 343.361 612.56 342.837 612.56C342.313 612.56 341.882 612.696 341.544 612.968C341.206 613.24 340.956 613.596 340.794 614.037C340.631 614.478 340.55 614.953 340.55 615.464C340.55 615.974 340.631 616.448 340.794 616.886C340.956 617.323 341.206 617.676 341.544 617.945C341.882 618.213 342.313 618.347 342.837 618.347ZM347.948 619.242V611.606H349.082V612.759H349.161C349.3 612.381 349.552 612.075 349.917 611.839C350.281 611.604 350.692 611.487 351.15 611.487C351.236 611.487 351.344 611.488 351.473 611.491C351.602 611.495 351.7 611.5 351.766 611.506V612.7C351.727 612.69 351.635 612.675 351.493 612.655C351.354 612.632 351.206 612.62 351.05 612.62C350.679 612.62 350.348 612.698 350.056 612.854C349.768 613.006 349.539 613.218 349.37 613.49C349.204 613.759 349.121 614.065 349.121 614.41V619.242H347.948ZM354.87 619.242L352.544 611.606H353.777L355.427 617.452H355.507L357.137 611.606H358.39L360.001 617.433H360.081L361.731 611.606H362.964L360.637 619.242H359.484L357.813 613.376H357.694L356.024 619.242H354.87ZM366.622 619.421C366.138 619.421 365.699 619.33 365.305 619.148C364.91 618.962 364.597 618.695 364.365 618.347C364.133 617.996 364.017 617.572 364.017 617.075C364.017 616.637 364.103 616.282 364.276 616.011C364.448 615.736 364.678 615.52 364.967 615.364C365.255 615.209 365.573 615.093 365.921 615.016C366.273 614.937 366.626 614.874 366.98 614.827C367.444 614.768 367.821 614.723 368.109 614.693C368.401 614.66 368.613 614.605 368.745 614.529C368.881 614.453 368.949 614.32 368.949 614.131V614.092C368.949 613.601 368.815 613.22 368.546 612.948C368.281 612.676 367.879 612.54 367.338 612.54C366.778 612.54 366.339 612.663 366.021 612.908C365.703 613.154 365.479 613.415 365.35 613.694L364.236 613.296C364.435 612.832 364.7 612.471 365.031 612.212C365.366 611.951 365.731 611.768 366.125 611.665C366.523 611.559 366.914 611.506 367.298 611.506C367.544 611.506 367.825 611.536 368.144 611.596C368.465 611.652 368.775 611.77 369.073 611.949C369.375 612.128 369.625 612.398 369.824 612.759C370.023 613.121 370.122 613.604 370.122 614.211V619.242H368.949V618.208H368.889C368.81 618.374 368.677 618.551 368.492 618.74C368.306 618.929 368.059 619.09 367.751 619.222C367.443 619.355 367.066 619.421 366.622 619.421ZM366.801 618.367C367.265 618.367 367.656 618.276 367.975 618.094C368.296 617.911 368.538 617.676 368.7 617.388C368.866 617.099 368.949 616.796 368.949 616.478V615.404C368.899 615.464 368.79 615.518 368.621 615.568C368.455 615.615 368.263 615.656 368.044 615.692C367.829 615.726 367.618 615.755 367.413 615.782C367.211 615.805 367.047 615.825 366.921 615.842C366.616 615.881 366.331 615.946 366.066 616.036C365.804 616.122 365.592 616.253 365.429 616.428C365.27 616.601 365.191 616.836 365.191 617.134C365.191 617.542 365.341 617.85 365.643 618.059C365.948 618.264 366.334 618.367 366.801 618.367ZM372.124 619.242V611.606H373.257V612.759H373.337C373.476 612.381 373.728 612.075 374.093 611.839C374.457 611.604 374.868 611.487 375.326 611.487C375.412 611.487 375.519 611.488 375.649 611.491C375.778 611.495 375.876 611.5 375.942 611.506V612.7C375.902 612.69 375.811 612.675 375.669 612.655C375.529 612.632 375.382 612.62 375.226 612.62C374.855 612.62 374.523 612.698 374.232 612.854C373.943 613.006 373.715 613.218 373.546 613.49C373.38 613.759 373.297 614.065 373.297 614.41V619.242H372.124ZM379.844 619.401C379.208 619.401 378.646 619.241 378.159 618.919C377.671 618.594 377.29 618.137 377.015 617.547C376.74 616.954 376.602 616.253 376.602 615.444C376.602 614.642 376.74 613.946 377.015 613.356C377.29 612.766 377.673 612.31 378.164 611.989C378.654 611.667 379.221 611.506 379.864 611.506C380.361 611.506 380.754 611.589 381.042 611.755C381.334 611.917 381.556 612.103 381.708 612.312C381.864 612.517 381.985 612.686 382.071 612.819H382.171V609.06H383.344V619.242H382.21V618.069H382.071C381.985 618.208 381.862 618.384 381.703 618.596C381.544 618.805 381.317 618.992 381.022 619.158C380.727 619.32 380.334 619.401 379.844 619.401ZM380.003 618.347C380.474 618.347 380.871 618.225 381.196 617.979C381.521 617.731 381.768 617.388 381.937 616.95C382.106 616.509 382.191 616.001 382.191 615.424C382.191 614.854 382.108 614.355 381.942 613.928C381.776 613.497 381.531 613.162 381.206 612.923C380.881 612.681 380.48 612.56 380.003 612.56C379.506 612.56 379.092 612.688 378.76 612.943C378.432 613.195 378.185 613.538 378.019 613.972C377.857 614.403 377.776 614.887 377.776 615.424C377.776 615.968 377.859 616.461 378.024 616.906C378.193 617.346 378.442 617.698 378.77 617.96C379.102 618.218 379.513 618.347 380.003 618.347ZM395.558 611.606L392.734 619.242H391.541L388.717 611.606H389.989L392.097 617.691H392.177L394.285 611.606H395.558ZM398.981 619.421C398.497 619.421 398.058 619.33 397.663 619.148C397.269 618.962 396.956 618.695 396.724 618.347C396.492 617.996 396.376 617.572 396.376 617.075C396.376 616.637 396.462 616.282 396.634 616.011C396.807 615.736 397.037 615.52 397.325 615.364C397.614 615.209 397.932 615.093 398.28 615.016C398.631 614.937 398.984 614.874 399.339 614.827C399.803 614.768 400.179 614.723 400.467 614.693C400.759 614.66 400.971 614.605 401.104 614.529C401.24 614.453 401.308 614.32 401.308 614.131V614.092C401.308 613.601 401.173 613.22 400.905 612.948C400.64 612.676 400.237 612.54 399.697 612.54C399.137 612.54 398.698 612.663 398.379 612.908C398.061 613.154 397.837 613.415 397.708 613.694L396.595 613.296C396.793 612.832 397.059 612.471 397.39 612.212C397.725 611.951 398.089 611.768 398.484 611.665C398.882 611.559 399.273 611.506 399.657 611.506C399.902 611.506 400.184 611.536 400.502 611.596C400.824 611.652 401.134 611.77 401.432 611.949C401.734 612.128 401.984 612.398 402.183 612.759C402.382 613.121 402.481 613.604 402.481 614.211V619.242H401.308V618.208H401.248C401.168 618.374 401.036 618.551 400.85 618.74C400.665 618.929 400.418 619.09 400.109 619.222C399.801 619.355 399.425 619.421 398.981 619.421ZM399.16 618.367C399.624 618.367 400.015 618.276 400.333 618.094C400.655 617.911 400.897 617.676 401.059 617.388C401.225 617.099 401.308 616.796 401.308 616.478V615.404C401.258 615.464 401.149 615.518 400.98 615.568C400.814 615.615 400.622 615.656 400.403 615.692C400.187 615.726 399.977 615.755 399.771 615.782C399.569 615.805 399.405 615.825 399.279 615.842C398.974 615.881 398.689 615.946 398.424 616.036C398.162 616.122 397.95 616.253 397.788 616.428C397.629 616.601 397.549 616.836 397.549 617.134C397.549 617.542 397.7 617.85 398.002 618.059C398.306 618.264 398.693 618.367 399.16 618.367ZM404.482 619.242V611.606H405.616V612.759H405.696C405.835 612.381 406.087 612.075 406.451 611.839C406.816 611.604 407.227 611.487 407.684 611.487C407.77 611.487 407.878 611.488 408.007 611.491C408.137 611.495 408.234 611.5 408.301 611.506V612.7C408.261 612.69 408.17 612.675 408.027 612.655C407.888 612.632 407.741 612.62 407.585 612.62C407.214 612.62 406.882 612.698 406.59 612.854C406.302 613.006 406.073 613.218 405.904 613.49C405.739 613.759 405.656 614.065 405.656 614.41V619.242H404.482ZM409.551 619.242V611.606H410.725V619.242H409.551ZM410.148 610.333C409.919 610.333 409.722 610.255 409.556 610.099C409.394 609.944 409.313 609.756 409.313 609.538C409.313 609.319 409.394 609.132 409.556 608.976C409.722 608.82 409.919 608.742 410.148 608.742C410.377 608.742 410.572 608.82 410.735 608.976C410.9 609.132 410.983 609.319 410.983 609.538C410.983 609.756 410.9 609.944 410.735 610.099C410.572 610.255 410.377 610.333 410.148 610.333ZM414.981 619.421C414.497 619.421 414.058 619.33 413.663 619.148C413.269 618.962 412.956 618.695 412.724 618.347C412.492 617.996 412.376 617.572 412.376 617.075C412.376 616.637 412.462 616.282 412.634 616.011C412.807 615.736 413.037 615.52 413.325 615.364C413.614 615.209 413.932 615.093 414.28 615.016C414.631 614.937 414.984 614.874 415.339 614.827C415.803 614.768 416.179 614.723 416.467 614.693C416.759 614.66 416.971 614.605 417.104 614.529C417.24 614.453 417.308 614.32 417.308 614.131V614.092C417.308 613.601 417.173 613.22 416.905 612.948C416.64 612.676 416.237 612.54 415.697 612.54C415.137 612.54 414.697 612.663 414.379 612.908C414.061 613.154 413.837 613.415 413.708 613.694L412.595 613.296C412.793 612.832 413.059 612.471 413.39 612.212C413.725 611.951 414.089 611.768 414.484 611.665C414.881 611.559 415.273 611.506 415.657 611.506C415.902 611.506 416.184 611.536 416.502 611.596C416.824 611.652 417.134 611.77 417.432 611.949C417.733 612.128 417.984 612.398 418.183 612.759C418.381 613.121 418.481 613.604 418.481 614.211V619.242H417.308V618.208H417.248C417.168 618.374 417.036 618.551 416.85 618.74C416.665 618.929 416.418 619.09 416.109 619.222C415.801 619.355 415.425 619.421 414.981 619.421ZM415.16 618.367C415.624 618.367 416.015 618.276 416.333 618.094C416.655 617.911 416.897 617.676 417.059 617.388C417.225 617.099 417.308 616.796 417.308 616.478V615.404C417.258 615.464 417.148 615.518 416.979 615.568C416.814 615.615 416.621 615.656 416.403 615.692C416.187 615.726 415.977 615.755 415.771 615.782C415.569 615.805 415.405 615.825 415.279 615.842C414.974 615.881 414.689 615.946 414.424 616.036C414.162 616.122 413.95 616.253 413.788 616.428C413.629 616.601 413.549 616.836 413.549 617.134C413.549 617.542 413.7 617.85 414.001 618.059C414.306 618.264 414.693 618.367 415.16 618.367ZM421.656 614.648V619.242H420.482V611.606H421.616V612.799H421.715C421.894 612.411 422.166 612.1 422.531 611.864C422.895 611.626 423.366 611.506 423.943 611.506C424.46 611.506 424.912 611.612 425.3 611.825C425.688 612.033 425.989 612.352 426.205 612.779C426.42 613.203 426.528 613.74 426.528 614.39V619.242H425.355V614.469C425.355 613.87 425.199 613.402 424.887 613.067C424.576 612.729 424.148 612.56 423.605 612.56C423.23 612.56 422.895 612.642 422.6 612.804C422.309 612.966 422.078 613.203 421.909 613.515C421.74 613.826 421.656 614.204 421.656 614.648ZM431.853 611.606V612.6H427.895V611.606H431.853ZM429.049 609.776H430.222V617.055C430.222 617.386 430.27 617.635 430.366 617.8C430.466 617.963 430.592 618.072 430.744 618.129C430.9 618.182 431.064 618.208 431.236 618.208C431.366 618.208 431.472 618.201 431.555 618.188C431.637 618.172 431.704 618.158 431.753 618.148L431.992 619.202C431.913 619.232 431.801 619.262 431.659 619.292C431.516 619.325 431.336 619.342 431.117 619.342C430.786 619.342 430.461 619.27 430.143 619.128C429.828 618.985 429.566 618.768 429.357 618.477C429.152 618.185 429.049 617.817 429.049 617.373V609.776Z" fill="#8F8F8F"/>
<path d="M534.85 619.242V609.06H538.29C539.086 609.06 539.739 609.196 540.249 609.468C540.76 609.737 541.138 610.106 541.383 610.577C541.628 611.047 541.751 611.583 541.751 612.183C541.751 612.782 541.628 613.314 541.383 613.778C541.138 614.242 540.761 614.607 540.254 614.872C539.747 615.134 539.099 615.265 538.31 615.265H535.526V614.151H538.271C538.814 614.151 539.252 614.072 539.583 613.913C539.918 613.754 540.16 613.528 540.309 613.237C540.461 612.942 540.538 612.59 540.538 612.183C540.538 611.775 540.461 611.419 540.309 611.114C540.156 610.809 539.913 610.573 539.578 610.408C539.243 610.239 538.801 610.154 538.251 610.154H536.083V619.242H534.85ZM539.643 614.668L542.148 619.242H540.717L538.251 614.668H539.643ZM543.506 619.242V611.606H544.679V619.242H543.506ZM544.103 610.333C543.874 610.333 543.677 610.255 543.511 610.099C543.349 609.944 543.267 609.756 543.267 609.538C543.267 609.319 543.349 609.132 543.511 608.976C543.677 608.82 543.874 608.742 544.103 608.742C544.331 608.742 544.527 608.82 544.689 608.976C544.855 609.132 544.938 609.319 544.938 609.538C544.938 609.756 544.855 609.944 544.689 610.099C544.527 610.255 544.331 610.333 544.103 610.333ZM549.771 622.265C549.204 622.265 548.717 622.192 548.309 622.046C547.901 621.904 547.562 621.715 547.29 621.479C547.021 621.247 546.808 620.999 546.649 620.734L547.583 620.077C547.689 620.217 547.824 620.376 547.986 620.555C548.148 620.737 548.37 620.894 548.652 621.027C548.937 621.163 549.31 621.231 549.771 621.231C550.387 621.231 550.896 621.082 551.297 620.783C551.698 620.485 551.899 620.018 551.899 619.381V617.83H551.799C551.713 617.969 551.59 618.142 551.431 618.347C551.276 618.549 551.05 618.73 550.755 618.889C550.463 619.045 550.069 619.123 549.572 619.123C548.955 619.123 548.402 618.977 547.911 618.685C547.424 618.394 547.038 617.969 546.753 617.413C546.471 616.856 546.33 616.18 546.33 615.384C546.33 614.602 546.468 613.921 546.743 613.341C547.018 612.758 547.401 612.307 547.892 611.989C548.382 611.667 548.949 611.506 549.592 611.506C550.089 611.506 550.483 611.589 550.775 611.755C551.07 611.917 551.295 612.103 551.451 612.312C551.61 612.517 551.733 612.686 551.819 612.819H551.938V611.606H553.072V619.461C553.072 620.117 552.923 620.651 552.624 621.062C552.329 621.476 551.932 621.779 551.431 621.972C550.934 622.167 550.381 622.265 549.771 622.265ZM549.731 618.069C550.202 618.069 550.599 617.961 550.924 617.746C551.249 617.53 551.496 617.22 551.665 616.816C551.834 616.412 551.919 615.928 551.919 615.364C551.919 614.814 551.836 614.329 551.67 613.908C551.504 613.487 551.259 613.157 550.934 612.918C550.609 612.68 550.208 612.56 549.731 612.56C549.234 612.56 548.82 612.686 548.488 612.938C548.16 613.19 547.913 613.528 547.747 613.952C547.585 614.377 547.504 614.847 547.504 615.364C547.504 615.895 547.587 616.364 547.752 616.771C547.921 617.176 548.17 617.494 548.498 617.726C548.829 617.955 549.24 618.069 549.731 618.069ZM556.253 614.648V619.242H555.08V609.06H556.253V612.799H556.352C556.531 612.405 556.8 612.091 557.158 611.859C557.519 611.624 558 611.506 558.6 611.506C559.12 611.506 559.576 611.611 559.967 611.82C560.358 612.025 560.661 612.342 560.877 612.769C561.095 613.193 561.205 613.734 561.205 614.39V619.242H560.031V614.469C560.031 613.863 559.874 613.394 559.559 613.062C559.247 612.728 558.815 612.56 558.261 612.56C557.877 612.56 557.532 612.642 557.227 612.804C556.926 612.966 556.687 613.203 556.511 613.515C556.339 613.826 556.253 614.204 556.253 614.648ZM566.532 611.606V612.6H562.575V611.606H566.532ZM563.728 609.776H564.901V617.055C564.901 617.386 564.95 617.635 565.046 617.8C565.145 617.963 565.271 618.072 565.423 618.129C565.579 618.182 565.743 618.208 565.916 618.208C566.045 618.208 566.151 618.201 566.234 618.188C566.317 618.172 566.383 618.158 566.433 618.148L566.671 619.202C566.592 619.232 566.481 619.262 566.338 619.292C566.196 619.325 566.015 619.342 565.796 619.342C565.465 619.342 565.14 619.27 564.822 619.128C564.507 618.985 564.245 618.768 564.036 618.477C563.831 618.185 563.728 617.817 563.728 617.373V609.776ZM578.199 611.606L575.375 619.242H574.182L571.358 611.606H572.631L574.739 617.691H574.818L576.926 611.606H578.199ZM581.622 619.421C581.138 619.421 580.699 619.33 580.305 619.148C579.91 618.962 579.597 618.695 579.365 618.347C579.133 617.996 579.017 617.572 579.017 617.075C579.017 616.637 579.103 616.282 579.276 616.011C579.448 615.736 579.678 615.52 579.967 615.364C580.255 615.209 580.573 615.093 580.921 615.016C581.273 614.937 581.626 614.874 581.98 614.827C582.444 614.768 582.82 614.723 583.109 614.693C583.4 614.66 583.613 614.605 583.745 614.529C583.881 614.453 583.949 614.32 583.949 614.131V614.092C583.949 613.601 583.815 613.22 583.546 612.948C583.281 612.676 582.878 612.54 582.338 612.54C581.778 612.54 581.339 612.663 581.021 612.908C580.703 613.154 580.479 613.415 580.35 613.694L579.236 613.296C579.435 612.832 579.7 612.471 580.031 612.212C580.366 611.951 580.731 611.768 581.125 611.665C581.523 611.559 581.914 611.506 582.298 611.506C582.544 611.506 582.825 611.536 583.144 611.596C583.465 611.652 583.775 611.77 584.073 611.949C584.375 612.128 584.625 612.398 584.824 612.759C585.023 613.121 585.122 613.604 585.122 614.211V619.242H583.949V618.208H583.889C583.81 618.374 583.677 618.551 583.492 618.74C583.306 618.929 583.059 619.09 582.751 619.222C582.443 619.355 582.066 619.421 581.622 619.421ZM581.801 618.367C582.265 618.367 582.656 618.276 582.975 618.094C583.296 617.911 583.538 617.676 583.7 617.388C583.866 617.099 583.949 616.796 583.949 616.478V615.404C583.899 615.464 583.79 615.518 583.621 615.568C583.455 615.615 583.263 615.656 583.044 615.692C582.829 615.726 582.618 615.755 582.413 615.782C582.211 615.805 582.047 615.825 581.921 615.842C581.616 615.881 581.331 615.946 581.065 616.036C580.804 616.122 580.591 616.253 580.429 616.428C580.27 616.601 580.19 616.836 580.19 617.134C580.19 617.542 580.341 617.85 580.643 618.059C580.948 618.264 581.334 618.367 581.801 618.367ZM587.124 619.242V611.606H588.257V612.759H588.337C588.476 612.381 588.728 612.075 589.093 611.839C589.457 611.604 589.868 611.487 590.325 611.487C590.412 611.487 590.519 611.488 590.649 611.491C590.778 611.495 590.876 611.5 590.942 611.506V612.7C590.902 612.69 590.811 612.675 590.669 612.655C590.529 612.632 590.382 612.62 590.226 612.62C589.855 612.62 589.523 612.698 589.232 612.854C588.943 613.006 588.715 613.218 588.546 613.49C588.38 613.759 588.297 614.065 588.297 614.41V619.242H587.124ZM592.193 619.242V611.606H593.366V619.242H592.193ZM592.789 610.333C592.561 610.333 592.363 610.255 592.198 610.099C592.035 609.944 591.954 609.756 591.954 609.538C591.954 609.319 592.035 609.132 592.198 608.976C592.363 608.82 592.561 608.742 592.789 608.742C593.018 608.742 593.214 608.82 593.376 608.976C593.542 609.132 593.625 609.319 593.625 609.538C593.625 609.756 593.542 609.944 593.376 610.099C593.214 610.255 593.018 610.333 592.789 610.333ZM597.622 619.421C597.138 619.421 596.699 619.33 596.305 619.148C595.91 618.962 595.597 618.695 595.365 618.347C595.133 617.996 595.017 617.572 595.017 617.075C595.017 616.637 595.103 616.282 595.276 616.011C595.448 615.736 595.678 615.52 595.967 615.364C596.255 615.209 596.573 615.093 596.921 615.016C597.273 614.937 597.626 614.874 597.98 614.827C598.444 614.768 598.82 614.723 599.109 614.693C599.4 614.66 599.612 614.605 599.745 614.529C599.881 614.453 599.949 614.32 599.949 614.131V614.092C599.949 613.601 599.815 613.22 599.546 612.948C599.281 612.676 598.878 612.54 598.338 612.54C597.778 612.54 597.339 612.663 597.021 612.908C596.702 613.154 596.479 613.415 596.349 613.694L595.236 613.296C595.435 612.832 595.7 612.471 596.031 612.212C596.366 611.951 596.731 611.768 597.125 611.665C597.523 611.559 597.914 611.506 598.298 611.506C598.544 611.506 598.825 611.536 599.143 611.596C599.465 611.652 599.775 611.77 600.073 611.949C600.375 612.128 600.625 612.398 600.824 612.759C601.023 613.121 601.122 613.604 601.122 614.211V619.242H599.949V618.208H599.889C599.81 618.374 599.677 618.551 599.492 618.74C599.306 618.929 599.059 619.09 598.751 619.222C598.443 619.355 598.066 619.421 597.622 619.421ZM597.801 618.367C598.265 618.367 598.656 618.276 598.974 618.094C599.296 617.911 599.538 617.676 599.7 617.388C599.866 617.099 599.949 616.796 599.949 616.478V615.404C599.899 615.464 599.79 615.518 599.621 615.568C599.455 615.615 599.263 615.656 599.044 615.692C598.829 615.726 598.618 615.755 598.413 615.782C598.21 615.805 598.046 615.825 597.92 615.842C597.616 615.881 597.331 615.946 597.065 616.036C596.804 616.122 596.591 616.253 596.429 616.428C596.27 616.601 596.19 616.836 596.19 617.134C596.19 617.542 596.341 617.85 596.643 618.059C596.948 618.264 597.334 618.367 597.801 618.367ZM604.297 614.648V619.242H603.124V611.606H604.257V612.799H604.357C604.536 612.411 604.807 612.1 605.172 611.864C605.537 611.626 606.007 611.506 606.584 611.506C607.101 611.506 607.553 611.612 607.941 611.825C608.329 612.033 608.631 612.352 608.846 612.779C609.061 613.203 609.169 613.74 609.169 614.39V619.242H607.996V614.469C607.996 613.87 607.84 613.402 607.529 613.067C607.217 612.729 606.789 612.56 606.246 612.56C605.871 612.56 605.537 612.642 605.242 612.804C604.95 612.966 604.72 613.203 604.551 613.515C604.382 613.826 604.297 614.204 604.297 614.648ZM614.494 611.606V612.6H610.537V611.606H614.494ZM611.69 609.776H612.864V617.055C612.864 617.386 612.912 617.635 613.008 617.8C613.107 617.963 613.233 618.072 613.386 618.129C613.541 618.182 613.705 618.208 613.878 618.208C614.007 618.208 614.113 618.201 614.196 618.188C614.279 618.172 614.345 618.158 614.395 618.148L614.633 619.202C614.554 619.232 614.443 619.262 614.3 619.292C614.158 619.325 613.977 619.342 613.758 619.342C613.427 619.342 613.102 619.27 612.784 619.128C612.469 618.985 612.207 618.768 611.998 618.477C611.793 618.185 611.69 617.817 611.69 617.373V609.776Z" fill="#8F8F8F"/>
<path d="M87.18 200.171H82.504V198.827L86.956 192.275H88.72V198.743H89.896V200.171H88.72V202.215H87.18V200.171ZM87.18 198.743V194.389L84.198 198.743H87.18ZM94.5945 202.439C93.8665 202.439 93.2365 202.238 92.7045 201.837C92.1725 201.426 91.7619 200.834 91.4725 200.059C91.1832 199.275 91.0385 198.342 91.0385 197.259C91.0385 196.176 91.1832 195.243 91.4725 194.459C91.7619 193.675 92.1725 193.078 92.7045 192.667C93.2365 192.256 93.8665 192.051 94.5945 192.051C95.3225 192.051 95.9525 192.256 96.4845 192.667C97.0165 193.078 97.4272 193.675 97.7165 194.459C98.0059 195.243 98.1505 196.176 98.1505 197.259C98.1505 198.342 98.0059 199.275 97.7165 200.059C97.4272 200.834 97.0165 201.426 96.4845 201.837C95.9525 202.238 95.3225 202.439 94.5945 202.439ZM94.5945 201.011C95.0052 201.011 95.3552 200.862 95.6445 200.563C95.9339 200.264 96.1532 199.835 96.3025 199.275C96.4519 198.715 96.5265 198.043 96.5265 197.259C96.5265 196.475 96.4519 195.803 96.3025 195.243C96.1532 194.674 95.9292 194.24 95.6305 193.941C95.3412 193.633 94.9959 193.479 94.5945 193.479C94.1932 193.479 93.8432 193.633 93.5445 193.941C93.2552 194.24 93.0359 194.674 92.8865 195.243C92.7372 195.803 92.6625 196.475 92.6625 197.259C92.6625 198.043 92.7372 198.715 92.8865 199.275C93.0359 199.835 93.2552 200.264 93.5445 200.563C93.8339 200.862 94.1839 201.011 94.5945 201.011ZM95.8965 193.731L97.0165 193.829L93.2925 200.759L92.1725 200.661L95.8965 193.731ZM99.2371 194.739H100.553L100.609 196.405L100.427 196.363C100.53 195.803 100.726 195.364 101.015 195.047C101.314 194.73 101.673 194.571 102.093 194.571C102.522 194.571 102.854 194.725 103.087 195.033C103.33 195.341 103.488 195.808 103.563 196.433H103.381C103.474 195.845 103.666 195.388 103.955 195.061C104.244 194.734 104.613 194.571 105.061 194.571C105.649 194.571 106.074 194.786 106.335 195.215C106.606 195.635 106.741 196.312 106.741 197.245V202.215H105.257V197.441C105.257 196.862 105.201 196.456 105.089 196.223C104.977 195.98 104.8 195.859 104.557 195.859C104.38 195.859 104.23 195.92 104.109 196.041C103.988 196.153 103.894 196.326 103.829 196.559C103.764 196.792 103.731 197.091 103.731 197.455V202.215H102.247V197.441C102.247 196.872 102.191 196.466 102.079 196.223C101.976 195.98 101.799 195.859 101.547 195.859C101.37 195.859 101.22 195.92 101.099 196.041C100.978 196.153 100.884 196.326 100.819 196.559C100.754 196.792 100.721 197.091 100.721 197.455V202.215H99.2371V194.739ZM107.632 194.739H108.948L109.004 196.405L108.822 196.363C108.924 195.803 109.12 195.364 109.41 195.047C109.708 194.73 110.068 194.571 110.488 194.571C110.917 194.571 111.248 194.725 111.482 195.033C111.724 195.341 111.883 195.808 111.958 196.433H111.776C111.869 195.845 112.06 195.388 112.35 195.061C112.639 194.734 113.008 194.571 113.456 194.571C114.044 194.571 114.468 194.786 114.73 195.215C115 195.635 115.136 196.312 115.136 197.245V202.215H113.652V197.441C113.652 196.862 113.596 196.456 113.484 196.223C113.372 195.98 113.194 195.859 112.952 195.859C112.774 195.859 112.625 195.92 112.504 196.041C112.382 196.153 112.289 196.326 112.224 196.559C112.158 196.792 112.126 197.091 112.126 197.455V202.215H110.642V197.441C110.642 196.872 110.586 196.466 110.474 196.223C110.371 195.98 110.194 195.859 109.942 195.859C109.764 195.859 109.615 195.92 109.494 196.041C109.372 196.153 109.279 196.326 109.214 196.559C109.148 196.792 109.116 197.091 109.116 197.455V202.215H107.632V194.739Z" fill="#BA2471"/>
<path d="M180.238 123.38C179.164 123.38 178.324 123.119 177.718 122.596C177.111 122.074 176.784 121.369 176.738 120.482L178.32 120.384C178.376 120.907 178.572 121.299 178.908 121.56C179.244 121.812 179.687 121.938 180.238 121.938C180.826 121.938 181.302 121.808 181.666 121.546C182.039 121.276 182.226 120.86 182.226 120.3C182.226 119.927 182.146 119.614 181.988 119.362C181.838 119.11 181.619 118.924 181.33 118.802C181.04 118.672 180.704 118.606 180.322 118.606H179.496V117.22H180.322C180.788 117.22 181.166 117.108 181.456 116.884C181.754 116.66 181.904 116.32 181.904 115.862C181.904 115.386 181.764 115.032 181.484 114.798C181.204 114.556 180.802 114.434 180.28 114.434C179.738 114.434 179.323 114.546 179.034 114.77C178.754 114.985 178.586 115.298 178.53 115.708L176.92 115.61C177.013 114.808 177.349 114.173 177.928 113.706C178.516 113.23 179.3 112.992 180.28 112.992C180.933 112.992 181.502 113.104 181.988 113.328C182.482 113.543 182.86 113.856 183.122 114.266C183.383 114.677 183.514 115.162 183.514 115.722C183.514 116.348 183.327 116.847 182.954 117.22C182.58 117.594 182.025 117.846 181.288 117.976V117.71C182.081 117.804 182.706 118.088 183.164 118.564C183.621 119.04 183.85 119.647 183.85 120.384C183.85 121 183.7 121.532 183.402 121.98C183.103 122.428 182.678 122.774 182.128 123.016C181.586 123.259 180.956 123.38 180.238 123.38ZM188.688 123.38C187.97 123.38 187.34 123.268 186.798 123.044C186.257 122.811 185.832 122.475 185.524 122.036C185.226 121.598 185.076 121.066 185.076 120.44C185.076 119.722 185.291 119.124 185.72 118.648C186.159 118.163 186.756 117.841 187.512 117.682L187.54 117.962C186.915 117.822 186.42 117.566 186.056 117.192C185.692 116.81 185.51 116.32 185.51 115.722C185.51 115.209 185.641 114.747 185.902 114.336C186.173 113.916 186.546 113.59 187.022 113.356C187.508 113.114 188.063 112.992 188.688 112.992C189.314 112.992 189.864 113.114 190.34 113.356C190.826 113.59 191.199 113.916 191.46 114.336C191.731 114.747 191.866 115.209 191.866 115.722C191.866 116.32 191.684 116.805 191.32 117.178C190.966 117.552 190.471 117.813 189.836 117.962L189.864 117.682C190.62 117.841 191.213 118.163 191.642 118.648C192.081 119.124 192.3 119.722 192.3 120.44C192.3 121.066 192.146 121.598 191.838 122.036C191.54 122.475 191.12 122.811 190.578 123.044C190.037 123.268 189.407 123.38 188.688 123.38ZM188.688 121.938C189.295 121.938 189.776 121.798 190.13 121.518C190.494 121.238 190.676 120.823 190.676 120.272C190.676 119.731 190.504 119.311 190.158 119.012C189.813 118.704 189.323 118.55 188.688 118.55C188.054 118.55 187.564 118.704 187.218 119.012C186.873 119.311 186.7 119.731 186.7 120.272C186.7 120.823 186.878 121.238 187.232 121.518C187.596 121.798 188.082 121.938 188.688 121.938ZM188.688 117.178C189.164 117.178 189.542 117.066 189.822 116.842C190.112 116.609 190.256 116.264 190.256 115.806C190.256 115.377 190.112 115.041 189.822 114.798C189.542 114.556 189.164 114.434 188.688 114.434C188.212 114.434 187.83 114.556 187.54 114.798C187.26 115.041 187.12 115.377 187.12 115.806C187.12 116.264 187.265 116.609 187.554 116.842C187.844 117.066 188.222 117.178 188.688 117.178ZM193.331 115.68H194.647L194.703 117.346L194.521 117.304C194.623 116.744 194.819 116.306 195.109 115.988C195.407 115.671 195.767 115.512 196.187 115.512C196.616 115.512 196.947 115.666 197.181 115.974C197.423 116.282 197.582 116.749 197.657 117.374H197.475C197.568 116.786 197.759 116.329 198.049 116.002C198.338 115.676 198.707 115.512 199.155 115.512C199.743 115.512 200.167 115.727 200.429 116.156C200.699 116.576 200.835 117.253 200.835 118.186V123.156H199.351V118.382C199.351 117.804 199.295 117.398 199.183 117.164C199.071 116.922 198.893 116.8 198.651 116.8C198.473 116.8 198.324 116.861 198.203 116.982C198.081 117.094 197.988 117.267 197.923 117.5C197.857 117.734 197.825 118.032 197.825 118.396V123.156H196.341V118.382C196.341 117.813 196.285 117.407 196.173 117.164C196.07 116.922 195.893 116.8 195.641 116.8C195.463 116.8 195.314 116.861 195.193 116.982C195.071 117.094 194.978 117.267 194.913 117.5C194.847 117.734 194.815 118.032 194.815 118.396V123.156H193.331V115.68ZM201.725 115.68H203.041L203.097 117.346L202.915 117.304C203.018 116.744 203.214 116.306 203.503 115.988C203.802 115.671 204.161 115.512 204.581 115.512C205.011 115.512 205.342 115.666 205.575 115.974C205.818 116.282 205.977 116.749 206.051 117.374H205.869C205.963 116.786 206.154 116.329 206.443 116.002C206.733 115.676 207.101 115.512 207.549 115.512C208.137 115.512 208.562 115.727 208.823 116.156C209.094 116.576 209.229 117.253 209.229 118.186V123.156H207.745V118.382C207.745 117.804 207.689 117.398 207.577 117.164C207.465 116.922 207.288 116.8 207.045 116.8C206.868 116.8 206.719 116.861 206.597 116.982C206.476 117.094 206.383 117.267 206.317 117.5C206.252 117.734 206.219 118.032 206.219 118.396V123.156H204.735V118.382C204.735 117.813 204.679 117.407 204.567 117.164C204.465 116.922 204.287 116.8 204.035 116.8C203.858 116.8 203.709 116.861 203.587 116.982C203.466 117.094 203.373 117.267 203.307 117.5C203.242 117.734 203.209 118.032 203.209 118.396V123.156H201.725V115.68Z" fill="#BA2471"/>
<path d="M280.68 373.456H276.004V372.112L280.456 365.56H282.22V372.028H283.396V373.456H282.22V375.5H280.68V373.456ZM280.68 372.028V367.674L277.698 372.028H280.68ZM288.095 375.724C287.367 375.724 286.737 375.523 286.205 375.122C285.673 374.711 285.262 374.119 284.973 373.344C284.683 372.56 284.539 371.627 284.539 370.544C284.539 369.461 284.683 368.528 284.973 367.744C285.262 366.96 285.673 366.363 286.205 365.952C286.737 365.541 287.367 365.336 288.095 365.336C288.823 365.336 289.453 365.541 289.985 365.952C290.517 366.363 290.927 366.96 291.217 367.744C291.506 368.528 291.651 369.461 291.651 370.544C291.651 371.627 291.506 372.56 291.217 373.344C290.927 374.119 290.517 374.711 289.985 375.122C289.453 375.523 288.823 375.724 288.095 375.724ZM288.095 374.296C288.505 374.296 288.855 374.147 289.145 373.848C289.434 373.549 289.653 373.12 289.803 372.56C289.952 372 290.027 371.328 290.027 370.544C290.027 369.76 289.952 369.088 289.803 368.528C289.653 367.959 289.429 367.525 289.131 367.226C288.841 366.918 288.496 366.764 288.095 366.764C287.693 366.764 287.343 366.918 287.045 367.226C286.755 367.525 286.536 367.959 286.387 368.528C286.237 369.088 286.163 369.76 286.163 370.544C286.163 371.328 286.237 372 286.387 372.56C286.536 373.12 286.755 373.549 287.045 373.848C287.334 374.147 287.684 374.296 288.095 374.296ZM289.397 367.016L290.517 367.114L286.793 374.044L285.673 373.946L289.397 367.016ZM292.737 368.024H294.053L294.109 369.69L293.927 369.648C294.03 369.088 294.226 368.649 294.515 368.332C294.814 368.015 295.173 367.856 295.593 367.856C296.022 367.856 296.354 368.01 296.587 368.318C296.83 368.626 296.988 369.093 297.063 369.718H296.881C296.974 369.13 297.166 368.673 297.455 368.346C297.744 368.019 298.113 367.856 298.561 367.856C299.149 367.856 299.574 368.071 299.835 368.5C300.106 368.92 300.241 369.597 300.241 370.53V375.5H298.757V370.726C298.757 370.147 298.701 369.741 298.589 369.508C298.477 369.265 298.3 369.144 298.057 369.144C297.88 369.144 297.73 369.205 297.609 369.326C297.488 369.438 297.394 369.611 297.329 369.844C297.264 370.077 297.231 370.376 297.231 370.74V375.5H295.747V370.726C295.747 370.157 295.691 369.751 295.579 369.508C295.476 369.265 295.299 369.144 295.047 369.144C294.87 369.144 294.72 369.205 294.599 369.326C294.478 369.438 294.384 369.611 294.319 369.844C294.254 370.077 294.221 370.376 294.221 370.74V375.5H292.737V368.024ZM301.132 368.024H302.448L302.504 369.69L302.322 369.648C302.424 369.088 302.62 368.649 302.91 368.332C303.208 368.015 303.568 367.856 303.988 367.856C304.417 367.856 304.748 368.01 304.982 368.318C305.224 368.626 305.383 369.093 305.458 369.718H305.276C305.369 369.13 305.56 368.673 305.85 368.346C306.139 368.019 306.508 367.856 306.956 367.856C307.544 367.856 307.968 368.071 308.23 368.5C308.5 368.92 308.636 369.597 308.636 370.53V375.5H307.152V370.726C307.152 370.147 307.096 369.741 306.984 369.508C306.872 369.265 306.694 369.144 306.452 369.144C306.274 369.144 306.125 369.205 306.004 369.326C305.882 369.438 305.789 369.611 305.724 369.844C305.658 370.077 305.626 370.376 305.626 370.74V375.5H304.142V370.726C304.142 370.157 304.086 369.751 303.974 369.508C303.871 369.265 303.694 369.144 303.442 369.144C303.264 369.144 303.115 369.205 302.994 369.326C302.872 369.438 302.779 369.611 302.714 369.844C302.648 370.077 302.616 370.376 302.616 370.74V375.5H301.132V368.024Z" fill="#BA2471"/>
<path d="M134 306L140.537 309.774L140.537 302.226L134 306ZM257 306L250.463 302.226L250.463 309.774L257 306ZM139.883 306L139.883 306.654L251.117 306.654L251.117 306L251.117 305.346L139.883 305.346L139.883 306Z" fill="#BA2471"/>
<path d="M150.688 496.086L157.224 499.86L157.224 492.312L150.688 496.086ZM166.376 496.086L159.839 492.312L159.839 499.86L166.376 496.086ZM156.571 496.086L156.571 496.74L160.493 496.74L160.493 496.086L160.493 495.432L156.571 495.432L156.571 496.086Z" fill="#BA2471"/>
<path d="M145.453 132.633L151.99 136.407V128.859L145.453 132.633ZM242.196 132.633L235.66 128.859V136.407L242.196 132.633ZM151.336 132.633V133.286L236.313 133.286V132.633V131.979L151.336 131.979V132.633Z" fill="#BA2471"/>
<path d="M268.914 319.043L265.14 325.58L272.688 325.58L268.914 319.043ZM268.914 422.323L272.688 415.786L265.14 415.786L268.914 422.323ZM268.914 324.926L268.26 324.926L268.26 416.44L268.914 416.44L269.568 416.44L269.568 324.926L268.914 324.926Z" fill="#BA2471"/>
<path d="M117.773 253.676L122.316 247.649L114.824 246.728L117.773 253.676ZM130.949 146.474L126.406 152.501L133.897 153.422L130.949 146.474ZM118.491 247.837L119.139 247.917L130.88 152.393L130.231 152.313L129.582 152.233L117.842 247.757L118.491 247.837Z" fill="#BA2471"/>
<path d="M144.522 319.043H245.253H252.661C254.105 319.043 255.275 320.214 255.275 321.658V421.016C255.275 422.46 254.105 423.63 252.661 423.63H245.253H145.023H137.615C136.171 423.63 135 422.46 135 421.016V321.658C135 320.214 136.171 319.043 137.615 319.043H144.522Z" fill="white" fill-opacity="0.05"/>
<path d="M144.522 319.043H245.253M144.522 319.043L145.023 423.63M144.522 319.043H137.615C136.171 319.043 135 320.214 135 321.658V421.016C135 422.46 136.171 423.63 137.615 423.63H145.023M245.253 319.043V423.63M245.253 319.043H252.661C254.105 319.043 255.275 320.214 255.275 321.658V421.016C255.275 422.46 254.105 423.63 252.661 423.63H245.253M245.253 423.63H145.023" stroke="#8F8F8F" stroke-width="2.61468" stroke-linecap="round"/>
<path d="M135.135 589.998L144.477 490.349C144.54 489.678 145.104 489.164 145.778 489.164H222.564H239.269C239.944 489.164 240.508 489.678 240.571 490.349L249.913 589.998C249.985 590.765 249.381 591.427 248.611 591.427H240.46H222.564H136.436C135.666 591.427 135.063 590.765 135.135 589.998Z" fill="white" fill-opacity="0.05" stroke="#8F8F8F" stroke-width="2.61468" stroke-linecap="round"/>
<rect x="150.69" y="489.198" width="15.6881" height="101.973" stroke="#8F8F8F" stroke-width="2.61468"/>
<path d="M326.182 589.998L335.524 490.349C335.587 489.678 336.151 489.164 336.825 489.164H413.611H430.316C430.991 489.164 431.555 489.678 431.618 490.349L440.96 589.998C441.032 590.765 440.428 591.427 439.658 591.427H431.507H413.611H327.483C326.713 591.427 326.11 590.765 326.182 589.998Z" fill="white" fill-opacity="0.05" stroke="#8F8F8F" stroke-width="2.61468" stroke-linecap="round"/>
<rect x="375.721" y="489.198" width="15.6881" height="101.973" stroke="#8F8F8F" stroke-width="2.61468"/>
<path d="M517.229 589.998L526.571 490.349C526.634 489.678 527.197 489.164 527.872 489.164H604.657H621.363C622.038 489.164 622.602 489.678 622.665 490.349L632.007 589.998C632.079 590.765 631.475 591.427 630.705 591.427H622.553H604.657H518.53C517.76 591.427 517.157 590.765 517.229 589.998Z" fill="white" fill-opacity="0.05" stroke="#8F8F8F" stroke-width="2.61468" stroke-linecap="round"/>
<rect x="600.76" y="489.198" width="15.6881" height="101.973" stroke="#8F8F8F" stroke-width="2.61468"/>
<path d="M807.576 245.763L738.97 285.574L660.709 245.73C659.704 245.218 659.07 244.185 659.07 243.057V162.032L737.387 115.515C738.358 114.938 739.571 114.955 740.525 115.56L809.07 159.019V243.168C809.07 244.238 808.501 245.226 807.576 245.763Z" fill="white" fill-opacity="0.05"/>
<path d="M738.97 200.451V285.574M738.97 200.451L809.07 159.019M738.97 200.451L659.07 162.032M738.97 285.574L807.576 245.763C808.501 245.226 809.07 244.238 809.07 243.168V159.019M738.97 285.574L660.709 245.73C659.704 245.218 659.07 244.185 659.07 243.057V162.032M809.07 159.019L740.525 115.56C739.571 114.955 738.358 114.938 737.387 115.515L659.07 162.032" stroke="#8F8F8F" stroke-width="2.5" stroke-linecap="round"/>
<mask id="path-25-inside-1_3388_992" fill="white">
<rect x="330.328" y="317.738" width="104.587" height="104.587" rx="1.30734"/>
</mask>
<rect x="330.328" y="317.738" width="104.587" height="104.587" rx="1.30734" fill="white" fill-opacity="0.05" stroke="#8F8F8F" stroke-width="5.22937" mask="url(#path-25-inside-1_3388_992)"/>
<path d="M394.473 49.5V32.0391H398.258L402.125 42.1758C402.234 42.4648 402.359 42.8281 402.5 43.2656C402.641 43.7031 402.785 44.168 402.934 44.6602C403.09 45.1523 403.234 45.6289 403.367 46.0898C403.508 46.543 403.625 46.9375 403.719 47.2734H403.121C403.215 46.9531 403.328 46.5664 403.461 46.1133C403.594 45.6523 403.734 45.1758 403.883 44.6836C404.039 44.1914 404.188 43.7227 404.328 43.2773C404.477 42.832 404.602 42.4648 404.703 42.1758L408.512 32.0391H412.32V49.5H409.707V40.043C409.707 39.668 409.711 39.2422 409.719 38.7656C409.727 38.2812 409.738 37.7734 409.754 37.2422C409.77 36.7109 409.781 36.1758 409.789 35.6367C409.805 35.0977 409.816 34.5781 409.824 34.0781H410.094C409.922 34.6484 409.742 35.2227 409.555 35.8008C409.367 36.3789 409.188 36.9336 409.016 37.4648C408.844 37.9961 408.68 38.4844 408.523 38.9297C408.375 39.3672 408.242 39.7383 408.125 40.043L404.492 49.5H402.289L398.621 40.043C398.504 39.7383 398.367 39.3711 398.211 38.9414C398.062 38.5039 397.898 38.0195 397.719 37.4883C397.547 36.957 397.363 36.4023 397.168 35.8242C396.98 35.2383 396.789 34.6562 396.594 34.0781H396.934C396.949 34.5547 396.961 35.0625 396.969 35.6016C396.984 36.1328 396.996 36.668 397.004 37.207C397.02 37.7383 397.031 38.25 397.039 38.7422C397.047 39.2266 397.051 39.6602 397.051 40.043V49.5H394.473ZM420.284 49.7812C419.081 49.7812 418.026 49.5039 417.12 48.9492C416.221 48.3945 415.522 47.625 415.022 46.6406C414.522 45.6484 414.272 44.5 414.272 43.1953C414.272 41.8828 414.522 40.7305 415.022 39.7383C415.522 38.7383 416.221 37.9609 417.12 37.4062C418.026 36.8516 419.081 36.5742 420.284 36.5742C421.487 36.5742 422.538 36.8516 423.436 37.4062C424.343 37.9609 425.046 38.7383 425.546 39.7383C426.046 40.7305 426.296 41.8828 426.296 43.1953C426.296 44.5 426.046 45.6484 425.546 46.6406C425.046 47.625 424.343 48.3945 423.436 48.9492C422.538 49.5039 421.487 49.7812 420.284 49.7812ZM420.284 47.625C421.034 47.625 421.663 47.4336 422.171 47.0508C422.686 46.668 423.077 46.1445 423.343 45.4805C423.608 44.8086 423.741 44.0469 423.741 43.1953C423.741 42.3281 423.608 41.5625 423.343 40.8984C423.077 40.2266 422.686 39.6992 422.171 39.3164C421.663 38.9258 421.034 38.7305 420.284 38.7305C419.542 38.7305 418.913 38.9219 418.397 39.3047C417.882 39.6875 417.491 40.2148 417.225 40.8867C416.968 41.5586 416.839 42.3281 416.839 43.1953C416.839 44.0469 416.968 44.8086 417.225 45.4805C417.491 46.1445 417.882 46.668 418.397 47.0508C418.913 47.4336 419.542 47.625 420.284 47.625ZM432.865 49.7461C431.802 49.7461 430.861 49.4766 430.04 48.9375C429.228 48.3984 428.591 47.6367 428.13 46.6523C427.677 45.6602 427.451 44.4961 427.451 43.1602C427.451 41.8242 427.681 40.6641 428.142 39.6797C428.603 38.6953 429.24 37.9375 430.052 37.4062C430.873 36.8672 431.81 36.5977 432.865 36.5977C433.521 36.5977 434.091 36.6992 434.576 36.9023C435.068 37.1055 435.482 37.3711 435.818 37.6992C436.162 38.0195 436.439 38.3672 436.65 38.7422H436.72V32.0391H439.251V49.5H436.779V47.543H436.673C436.455 47.9336 436.169 48.2969 435.818 48.6328C435.474 48.9688 435.06 49.2383 434.576 49.4414C434.091 49.6445 433.521 49.7461 432.865 49.7461ZM433.404 47.5898C434.115 47.5898 434.728 47.4062 435.244 47.0391C435.759 46.6641 436.154 46.1445 436.427 45.4805C436.701 44.8164 436.837 44.0391 436.837 43.1484C436.837 42.2656 436.701 41.4961 436.427 40.8398C436.154 40.1758 435.759 39.6602 435.244 39.293C434.736 38.9258 434.123 38.7422 433.404 38.7422C432.701 38.7422 432.095 38.9258 431.587 39.293C431.08 39.6523 430.689 40.1602 430.415 40.8164C430.15 41.4727 430.017 42.25 430.017 43.1484C430.017 44.0547 430.15 44.8398 430.415 45.5039C430.689 46.168 431.08 46.6836 431.587 47.0508C432.095 47.4102 432.701 47.5898 433.404 47.5898ZM446.078 49.7109C445.219 49.7109 444.449 49.5273 443.77 49.1602C443.098 48.7852 442.57 48.2305 442.188 47.4961C441.805 46.7617 441.613 45.8594 441.613 44.7891V36.7969H444.133V44.4727C444.133 45.4414 444.375 46.1875 444.86 46.7109C445.344 47.2266 446.016 47.4844 446.875 47.4844C447.438 47.4844 447.945 47.3672 448.399 47.1328C448.86 46.8906 449.219 46.5273 449.477 46.043C449.742 45.5508 449.875 44.9375 449.875 44.2031V36.7969H452.406V49.5H449.957L449.945 46.3711H450.379C449.988 47.5117 449.43 48.3555 448.703 48.9023C447.977 49.4414 447.102 49.7109 446.078 49.7109ZM457.311 32.0391V49.5H454.792V32.0391H457.311ZM463.423 49.7344C462.595 49.7344 461.853 49.5898 461.197 49.3008C460.541 49.0117 460.021 48.582 459.638 48.0117C459.255 47.4336 459.064 46.7266 459.064 45.8906C459.064 45.1641 459.201 44.5703 459.474 44.1094C459.755 43.6484 460.13 43.2812 460.599 43.0078C461.076 42.7344 461.611 42.5312 462.205 42.3984C462.798 42.2578 463.408 42.1523 464.033 42.082C464.806 41.9805 465.423 41.9023 465.884 41.8477C466.353 41.7852 466.693 41.6875 466.904 41.5547C467.115 41.4219 467.22 41.207 467.22 40.9102V40.8164C467.22 40.3789 467.123 40 466.927 39.6797C466.732 39.3516 466.447 39.1016 466.072 38.9297C465.705 38.75 465.252 38.6602 464.713 38.6602C464.166 38.6602 463.689 38.7461 463.283 38.918C462.884 39.0898 462.56 39.3203 462.31 39.6094C462.068 39.8906 461.908 40.207 461.83 40.5586L459.404 40.2773C459.56 39.4883 459.88 38.8203 460.365 38.2734C460.857 37.7266 461.474 37.3125 462.216 37.0312C462.966 36.7422 463.798 36.5977 464.713 36.5977C465.369 36.5977 465.998 36.6797 466.599 36.8438C467.201 37.0078 467.736 37.2617 468.205 37.6055C468.673 37.9492 469.041 38.3945 469.306 38.9414C469.58 39.4883 469.716 40.1484 469.716 40.9219V49.5H467.255V47.7305H467.173C467.002 48.0664 466.755 48.3867 466.435 48.6914C466.123 48.9961 465.72 49.2461 465.228 49.4414C464.736 49.6367 464.134 49.7344 463.423 49.7344ZM463.951 47.7188C464.67 47.7188 465.271 47.5859 465.755 47.3203C466.24 47.0469 466.603 46.6914 466.845 46.2539C467.095 45.8086 467.22 45.332 467.22 44.8242V43.2773C467.134 43.3555 466.978 43.4297 466.752 43.5C466.533 43.5625 466.271 43.6211 465.966 43.6758C465.67 43.7305 465.361 43.7812 465.041 43.8281C464.728 43.875 464.435 43.918 464.162 43.957C463.701 44.0195 463.271 44.125 462.873 44.2734C462.474 44.4141 462.154 44.6172 461.912 44.8828C461.677 45.1484 461.56 45.4961 461.56 45.9258C461.56 46.3086 461.662 46.6328 461.865 46.8984C462.068 47.1641 462.345 47.3672 462.697 47.5078C463.056 47.6484 463.474 47.7188 463.951 47.7188ZM472.102 49.5V36.7969H474.528V38.8477H474.61C474.844 38.1602 475.231 37.6211 475.77 37.2305C476.309 36.832 476.969 36.6328 477.75 36.6328C477.93 36.6328 478.11 36.6406 478.289 36.6562C478.469 36.6641 478.618 36.6758 478.735 36.6914V39.0703C478.641 39.0469 478.465 39.0195 478.207 38.9883C477.957 38.957 477.692 38.9414 477.41 38.9414C476.887 38.9414 476.414 39.0586 475.993 39.293C475.571 39.5195 475.235 39.8555 474.985 40.3008C474.743 40.7383 474.621 41.2734 474.621 41.9062V49.5H472.102ZM485.533 49.5V32.0391H492.013C493.232 32.0391 494.26 32.2344 495.095 32.625C495.931 33.0156 496.564 33.5547 496.994 34.2422C497.424 34.9297 497.638 35.7227 497.638 36.6211C497.638 37.3164 497.513 37.9141 497.263 38.4141C497.013 38.9141 496.666 39.3242 496.22 39.6445C495.783 39.9648 495.275 40.207 494.697 40.3711V40.4648C495.33 40.5273 495.92 40.7305 496.467 41.0742C497.021 41.418 497.467 41.8906 497.802 42.4922C498.146 43.0938 498.318 43.8242 498.318 44.6836C498.318 45.6289 498.095 46.4648 497.65 47.1914C497.213 47.9102 496.545 48.4766 495.646 48.8906C494.748 49.2969 493.615 49.5 492.248 49.5H485.533ZM488.158 47.2617H492.037C493.256 47.2617 494.166 47.0273 494.767 46.5586C495.369 46.082 495.67 45.4375 495.67 44.625C495.67 44.0469 495.529 43.5391 495.248 43.1016C494.967 42.6562 494.56 42.3086 494.029 42.0586C493.506 41.8086 492.877 41.6836 492.142 41.6836H488.158V47.2617ZM488.158 39.5742H491.885C492.517 39.5742 493.068 39.4648 493.537 39.2461C494.006 39.0273 494.369 38.7148 494.627 38.3086C494.892 37.9023 495.025 37.4258 495.025 36.8789C495.025 36.1055 494.76 35.4805 494.228 35.0039C493.697 34.5195 492.927 34.2773 491.92 34.2773H488.158V39.5742ZM502.672 32.0391V49.5H500.153V32.0391H502.672ZM510.46 49.7812C509.257 49.7812 508.202 49.5039 507.296 48.9492C506.398 48.3945 505.698 47.625 505.198 46.6406C504.698 45.6484 504.448 44.5 504.448 43.1953C504.448 41.8828 504.698 40.7305 505.198 39.7383C505.698 38.7383 506.398 37.9609 507.296 37.4062C508.202 36.8516 509.257 36.5742 510.46 36.5742C511.663 36.5742 512.714 36.8516 513.613 37.4062C514.519 37.9609 515.222 38.7383 515.722 39.7383C516.222 40.7305 516.472 41.8828 516.472 43.1953C516.472 44.5 516.222 45.6484 515.722 46.6406C515.222 47.625 514.519 48.3945 513.613 48.9492C512.714 49.5039 511.663 49.7812 510.46 49.7812ZM510.46 47.625C511.21 47.625 511.839 47.4336 512.347 47.0508C512.863 46.668 513.253 46.1445 513.519 45.4805C513.784 44.8086 513.917 44.0469 513.917 43.1953C513.917 42.3281 513.784 41.5625 513.519 40.8984C513.253 40.2266 512.863 39.6992 512.347 39.3164C511.839 38.9258 511.21 38.7305 510.46 38.7305C509.718 38.7305 509.089 38.9219 508.573 39.3047C508.058 39.6875 507.667 40.2148 507.402 40.8867C507.144 41.5586 507.015 42.3281 507.015 43.1953C507.015 44.0469 507.144 44.8086 507.402 45.4805C507.667 46.1445 508.058 46.668 508.573 47.0508C509.089 47.4336 509.718 47.625 510.46 47.625ZM523.627 49.7812C522.424 49.7812 521.373 49.5039 520.475 48.9492C519.576 48.3945 518.877 47.6211 518.377 46.6289C517.877 45.6367 517.627 44.4922 517.627 43.1953C517.627 41.8828 517.877 40.7305 518.377 39.7383C518.877 38.7383 519.576 37.9609 520.475 37.4062C521.373 36.8516 522.424 36.5742 523.627 36.5742C524.338 36.5742 524.998 36.6758 525.607 36.8789C526.225 37.082 526.771 37.3711 527.248 37.7461C527.725 38.1133 528.119 38.5547 528.432 39.0703C528.744 39.5859 528.955 40.1602 529.064 40.793L526.615 41.0625C526.545 40.7109 526.424 40.3945 526.252 40.1133C526.088 39.832 525.881 39.5898 525.631 39.3867C525.381 39.1758 525.088 39.0156 524.752 38.9062C524.424 38.7891 524.053 38.7305 523.639 38.7305C522.889 38.7305 522.256 38.9219 521.74 39.3047C521.232 39.6875 520.846 40.2148 520.58 40.8867C520.322 41.5586 520.193 42.3281 520.193 43.1953C520.193 44.0469 520.322 44.8086 520.58 45.4805C520.846 46.1445 521.232 46.668 521.74 47.0508C522.256 47.4336 522.889 47.625 523.639 47.625C524.053 47.625 524.424 47.5703 524.752 47.4609C525.088 47.3438 525.377 47.1797 525.619 46.9688C525.869 46.7578 526.076 46.5078 526.24 46.2188C526.412 45.9219 526.541 45.5977 526.627 45.2461L529.088 45.5039C528.978 46.1367 528.768 46.7148 528.455 47.2383C528.143 47.7617 527.744 48.2148 527.26 48.5977C526.783 48.9727 526.236 49.2656 525.619 49.4766C525.002 49.6797 524.338 49.7812 523.627 49.7812ZM533.102 45.2227V42.1992H533.419L538.657 36.7969H541.739L535.833 42.9375H535.423L533.102 45.2227ZM530.782 49.5V32.0391H533.301V49.5H530.782ZM538.985 49.5L534.333 43.5L536.067 41.7305L542.09 49.5H538.985ZM547.64 49.7812C546.687 49.7812 545.835 49.6367 545.085 49.3477C544.343 49.0586 543.738 48.6289 543.269 48.0586C542.8 47.4805 542.515 46.7734 542.413 45.9375L544.851 45.7148C544.968 46.3867 545.261 46.8984 545.73 47.25C546.206 47.5938 546.835 47.7656 547.617 47.7656C548.421 47.7656 549.058 47.6016 549.527 47.2734C550.003 46.9375 550.242 46.5234 550.242 46.0312C550.242 45.6094 550.081 45.2695 549.761 45.0117C549.449 44.7461 549.003 44.5508 548.425 44.4258L546.304 43.9453C545.124 43.6797 544.234 43.25 543.632 42.6562C543.038 42.0625 542.742 41.3008 542.742 40.3711C542.742 39.6211 542.945 38.9609 543.351 38.3906C543.765 37.8203 544.339 37.375 545.074 37.0547C545.808 36.7344 546.656 36.5742 547.617 36.5742C548.554 36.5742 549.37 36.7266 550.066 37.0312C550.769 37.3359 551.327 37.7656 551.742 38.3203C552.163 38.875 552.425 39.5273 552.527 40.2773L550.183 40.5117C550.105 39.9648 549.851 39.5039 549.421 39.1289C548.992 38.7539 548.402 38.5664 547.652 38.5664C546.941 38.5664 546.363 38.7305 545.917 39.0586C545.48 39.3867 545.261 39.793 545.261 40.2773C545.261 40.6992 545.421 41.043 545.742 41.3086C546.062 41.5742 546.535 41.7773 547.16 41.918L549.257 42.3867C550.476 42.6602 551.37 43.082 551.941 43.6523C552.519 44.2148 552.808 44.9492 552.808 45.8555C552.808 46.6445 552.585 47.3359 552.14 47.9297C551.702 48.5156 551.093 48.9727 550.312 49.3008C549.531 49.6211 548.64 49.7812 547.64 49.7812Z" fill="white" fill-opacity="0.87"/>
</svg>
