<svg viewBox="0 0 971 756" fill="none" xmlns="http://www.w3.org/2000/svg">
<g opacity="0.7">
<path d="M544.194 417.577L198.994 218.608C198.746 218.465 198.594 218.201 198.594 217.915V149.577L390.193 39.0084C390.441 38.8654 390.746 38.8656 390.994 39.0089L736.194 238.777V305.916C736.194 306.202 736.042 306.465 735.795 306.608L544.194 417.577Z" fill="white" fill-opacity="0.05"/>
<path d="M198.594 149.577L544.194 349.177M198.594 149.577V217.915C198.594 218.201 198.746 218.465 198.994 218.608L544.194 417.577M198.594 149.577L390.193 39.0084C390.441 38.8654 390.746 38.8656 390.994 39.0089L736.194 238.777M544.194 349.177V417.577M544.194 349.177L736.194 238.777M544.194 417.577L735.795 306.608C736.042 306.465 736.194 306.202 736.194 305.916V238.777" stroke="#8F8F8F" stroke-width="2"/>
<path d="M412.988 163.578L397.278 172.929C396.772 173.23 396.754 173.956 397.243 174.282L400.573 176.502C400.827 176.671 401.155 176.681 401.419 176.528L418.188 166.778" stroke="#8F8F8F" stroke-width="2"/>
<path d="M423.394 169.977L407.684 179.327C407.179 179.628 407.16 180.354 407.65 180.681L410.979 182.9C411.233 183.069 411.561 183.079 411.825 182.926L428.594 173.177" stroke="#8F8F8F" stroke-width="2"/>
<path d="M434.988 176.379L419.278 185.73C418.772 186.031 418.754 186.756 419.243 187.083L422.573 189.302C422.827 189.472 423.155 189.482 423.419 189.328L440.188 179.579" stroke="#8F8F8F" stroke-width="2"/>
<path d="M372.439 184.863L407.37 161.064C407.627 160.889 407.961 160.878 408.228 161.036L445.67 183.196C446.227 183.525 446.182 184.345 445.593 184.612L403.367 203.806C403.131 203.914 402.857 203.9 402.633 203.769L372.487 186.216C371.978 185.92 371.953 185.194 372.439 184.863Z" fill="white" fill-opacity="0.05" stroke="#8F8F8F" stroke-width="2"/>
<path d="M336.988 117.578L321.278 126.929C320.772 127.23 320.754 127.956 321.243 128.282L324.573 130.502C324.827 130.671 325.155 130.681 325.419 130.528L342.188 120.778" stroke="#8F8F8F" stroke-width="2"/>
<path d="M347.394 123.977L331.684 133.327C331.179 133.628 331.16 134.354 331.65 134.681L334.979 136.9C335.233 137.069 335.561 137.079 335.825 136.926L352.594 127.177" stroke="#8F8F8F" stroke-width="2"/>
<path d="M358.988 130.379L343.278 139.73C342.772 140.031 342.754 140.756 343.243 141.083L346.573 143.302C346.827 143.472 347.155 143.482 347.419 143.328L364.188 133.579" stroke="#8F8F8F" stroke-width="2"/>
<path d="M296.439 138.863L331.37 115.064C331.627 114.889 331.961 114.878 332.228 115.036L369.67 137.196C370.227 137.525 370.182 138.345 369.593 138.612L327.367 157.806C327.131 157.914 326.857 157.9 326.633 157.769L296.487 140.216C295.978 139.92 295.953 139.194 296.439 138.863Z" fill="white" fill-opacity="0.05" stroke="#8F8F8F" stroke-width="2"/>
<path d="M491.394 206.379L475.684 215.73C475.179 216.031 475.16 216.756 475.65 217.083L478.979 219.302C479.233 219.472 479.561 219.482 479.825 219.328L496.594 209.579" stroke="#8F8F8F" stroke-width="2"/>
<path d="M501.8 212.777L486.091 222.128C485.585 222.429 485.566 223.155 486.056 223.481L489.385 225.701C489.639 225.87 489.967 225.88 490.231 225.727L507 215.977" stroke="#8F8F8F" stroke-width="2"/>
<path d="M513.394 219.18L497.684 228.531C497.179 228.832 497.16 229.557 497.65 229.884L500.979 232.103C501.233 232.272 501.561 232.282 501.825 232.129L518.594 222.38" stroke="#8F8F8F" stroke-width="2"/>
<path d="M450.845 227.664L485.777 203.864C486.033 203.69 486.367 203.679 486.635 203.837L524.076 225.996C524.633 226.326 524.589 227.146 524 227.413L481.773 246.607C481.537 246.714 481.264 246.701 481.04 246.57L450.893 229.016C450.385 228.72 450.359 227.995 450.845 227.664Z" fill="white" fill-opacity="0.05" stroke="#8F8F8F" stroke-width="2"/>
<path d="M566.597 251.977L550.887 261.327C550.382 261.628 550.363 262.354 550.853 262.681L554.182 264.9C554.436 265.069 554.764 265.079 555.028 264.926L571.797 255.177" stroke="#8F8F8F" stroke-width="2"/>
<path d="M576.988 258.375L561.278 267.726C560.772 268.027 560.754 268.753 561.243 269.079L564.573 271.298C564.827 271.468 565.155 271.478 565.419 271.324L582.188 261.575" stroke="#8F8F8F" stroke-width="2"/>
<path d="M588.597 264.777L572.887 274.128C572.382 274.429 572.363 275.155 572.853 275.481L576.182 277.701C576.436 277.87 576.764 277.88 577.028 277.727L593.797 267.977" stroke="#8F8F8F" stroke-width="2"/>
<path d="M526.04 273.262L560.972 249.462C561.228 249.287 561.563 249.277 561.83 249.435L599.271 271.594C599.828 271.924 599.784 272.743 599.195 273.011L556.969 292.205C556.732 292.312 556.459 292.298 556.235 292.168L526.088 274.614C525.58 274.318 525.554 273.593 526.04 273.262Z" fill="white" fill-opacity="0.05" stroke="#8F8F8F" stroke-width="2"/>
<path d="M524.987 315.743L506.2 305.008C505.951 304.865 505.797 304.6 505.797 304.313V297.977L525.002 287.003C525.247 286.863 525.547 286.862 525.793 287.001L543.797 297.177V304.328C543.797 304.607 543.651 304.866 543.413 305.011L525.8 315.732C525.551 315.883 525.24 315.888 524.987 315.743Z" fill="white" fill-opacity="0.05"/>
<path d="M543.797 297.177V304.328C543.797 304.607 543.651 304.866 543.413 305.011L525.8 315.732C525.551 315.883 525.24 315.888 524.987 315.743L506.2 305.008C505.951 304.865 505.797 304.6 505.797 304.313V297.977M543.797 297.177L525.786 308.141C525.545 308.287 525.244 308.296 524.995 308.164L505.797 297.977M543.797 297.177L525.793 287.001C525.547 286.862 525.247 286.863 525.002 287.003L505.797 297.977M530.222 298.238L525.389 300.957C525.146 301.094 524.848 301.094 524.605 300.957L519.772 298.238C519.243 297.941 519.225 297.185 519.74 296.863L524.573 293.842C524.832 293.68 525.161 293.68 525.421 293.842L530.253 296.863C530.769 297.185 530.751 297.941 530.222 298.238Z" stroke="#8F8F8F" stroke-width="2"/>
<path d="M547.797 407.404V353.638C547.797 353.353 547.949 353.089 548.196 352.946L730.205 247.468C730.737 247.16 731.402 247.541 731.406 248.154L731.794 303.908C731.796 304.198 731.641 304.466 731.388 304.609L548.992 408.099C548.458 408.402 547.797 408.017 547.797 407.404Z" fill="white" fill-opacity="0.05" stroke="#8F8F8F" stroke-width="2"/>
<path d="M595.797 326.779L600.997 329.579M600.997 329.579V322.379M600.997 329.579L639.413 306.213C639.651 306.067 639.797 305.808 639.797 305.529V300.379" stroke="#8F8F8F" stroke-width="2"/>
</g>
<path d="M325.747 478.192C324.827 478.192 324.107 477.968 323.587 477.52C323.067 477.072 322.787 476.468 322.747 475.708L324.103 475.624C324.151 476.072 324.319 476.408 324.607 476.632C324.895 476.848 325.275 476.956 325.747 476.956C326.251 476.956 326.659 476.844 326.971 476.62C327.291 476.388 327.451 476.032 327.451 475.552C327.451 475.232 327.383 474.964 327.247 474.748C327.119 474.532 326.931 474.372 326.683 474.268C326.435 474.156 326.147 474.1 325.819 474.1H325.111V472.912H325.819C326.219 472.912 326.543 472.816 326.791 472.624C327.047 472.432 327.175 472.14 327.175 471.748C327.175 471.34 327.055 471.036 326.815 470.836C326.575 470.628 326.231 470.524 325.783 470.524C325.319 470.524 324.963 470.62 324.715 470.812C324.475 470.996 324.331 471.264 324.283 471.616L322.903 471.532C322.983 470.844 323.271 470.3 323.767 469.9C324.271 469.492 324.943 469.288 325.783 469.288C326.343 469.288 326.831 469.384 327.247 469.576C327.671 469.76 327.995 470.028 328.219 470.38C328.443 470.732 328.555 471.148 328.555 471.628C328.555 472.164 328.395 472.592 328.075 472.912C327.755 473.232 327.279 473.448 326.647 473.56V473.332C327.327 473.412 327.863 473.656 328.255 474.064C328.647 474.472 328.843 474.992 328.843 475.624C328.843 476.152 328.715 476.608 328.459 476.992C328.203 477.376 327.839 477.672 327.367 477.88C326.903 478.088 326.363 478.192 325.747 478.192ZM332.991 478.192C332.367 478.192 331.827 478.02 331.371 477.676C330.915 477.324 330.563 476.816 330.315 476.152C330.067 475.48 329.943 474.68 329.943 473.752C329.943 472.824 330.067 472.024 330.315 471.352C330.563 470.68 330.915 470.168 331.371 469.816C331.827 469.464 332.367 469.288 332.991 469.288C333.615 469.288 334.155 469.464 334.611 469.816C335.067 470.168 335.419 470.68 335.667 471.352C335.915 472.024 336.039 472.824 336.039 473.752C336.039 474.68 335.915 475.48 335.667 476.152C335.419 476.816 335.067 477.324 334.611 477.676C334.155 478.02 333.615 478.192 332.991 478.192ZM332.991 476.968C333.343 476.968 333.643 476.84 333.891 476.584C334.139 476.328 334.327 475.96 334.455 475.48C334.583 475 334.647 474.424 334.647 473.752C334.647 473.08 334.583 472.504 334.455 472.024C334.327 471.536 334.135 471.164 333.879 470.908C333.631 470.644 333.335 470.512 332.991 470.512C332.647 470.512 332.347 470.644 332.091 470.908C331.843 471.164 331.655 471.536 331.527 472.024C331.399 472.504 331.335 473.08 331.335 473.752C331.335 474.424 331.399 475 331.527 475.48C331.655 475.96 331.843 476.328 332.091 476.584C332.339 476.84 332.639 476.968 332.991 476.968ZM334.107 470.728L335.067 470.812L331.875 476.752L330.915 476.668L334.107 470.728ZM336.97 471.592H338.098L338.146 473.02L337.99 472.984C338.078 472.504 338.246 472.128 338.494 471.856C338.75 471.584 339.058 471.448 339.418 471.448C339.786 471.448 340.07 471.58 340.27 471.844C340.478 472.108 340.614 472.508 340.678 473.044H340.522C340.602 472.54 340.766 472.148 341.014 471.868C341.262 471.588 341.578 471.448 341.962 471.448C342.466 471.448 342.83 471.632 343.054 472C343.286 472.36 343.402 472.94 343.402 473.74V478H342.13V473.908C342.13 473.412 342.082 473.064 341.986 472.864C341.89 472.656 341.738 472.552 341.53 472.552C341.378 472.552 341.25 472.604 341.146 472.708C341.042 472.804 340.962 472.952 340.906 473.152C340.85 473.352 340.822 473.608 340.822 473.92V478H339.55V473.908C339.55 473.42 339.502 473.072 339.406 472.864C339.318 472.656 339.166 472.552 338.95 472.552C338.798 472.552 338.67 472.604 338.566 472.708C338.462 472.804 338.382 472.952 338.326 473.152C338.27 473.352 338.242 473.608 338.242 473.92V478H336.97V471.592ZM344.165 471.592H345.293L345.341 473.02L345.185 472.984C345.273 472.504 345.441 472.128 345.689 471.856C345.945 471.584 346.253 471.448 346.613 471.448C346.981 471.448 347.265 471.58 347.465 471.844C347.673 472.108 347.809 472.508 347.873 473.044H347.717C347.797 472.54 347.961 472.148 348.209 471.868C348.457 471.588 348.773 471.448 349.157 471.448C349.661 471.448 350.025 471.632 350.249 472C350.481 472.36 350.597 472.94 350.597 473.74V478H349.325V473.908C349.325 473.412 349.277 473.064 349.181 472.864C349.085 472.656 348.933 472.552 348.725 472.552C348.573 472.552 348.445 472.604 348.341 472.708C348.237 472.804 348.157 472.952 348.101 473.152C348.045 473.352 348.017 473.608 348.017 473.92V478H346.745V473.908C346.745 473.42 346.697 473.072 346.601 472.864C346.513 472.656 346.361 472.552 346.145 472.552C345.993 472.552 345.865 472.604 345.761 472.708C345.657 472.804 345.577 472.952 345.521 473.152C345.465 473.352 345.437 473.608 345.437 473.92V478H344.165V471.592Z" fill="#BA2471"/>
<path d="M550.44 476.248H546.432V475.096L550.248 469.48H551.76V475.024H552.768V476.248H551.76V478H550.44V476.248ZM550.44 475.024V471.292L547.884 475.024H550.44ZM556.783 478.192C556.207 478.192 555.703 478.088 555.271 477.88C554.839 477.672 554.499 477.384 554.251 477.016C554.003 476.648 553.859 476.228 553.819 475.756L555.211 475.684C555.259 476.1 555.419 476.416 555.691 476.632C555.963 476.848 556.327 476.956 556.783 476.956C557.287 476.956 557.679 476.804 557.959 476.5C558.239 476.188 558.379 475.764 558.379 475.228C558.379 474.7 558.235 474.28 557.947 473.968C557.667 473.648 557.283 473.488 556.795 473.488C556.483 473.488 556.191 473.568 555.919 473.728C555.647 473.88 555.451 474.088 555.331 474.352L553.939 474.328L554.527 469.48H559.339V470.704H555.679L555.319 473.584L555.091 473.416C555.283 473.072 555.555 472.804 555.907 472.612C556.259 472.42 556.635 472.324 557.035 472.324C557.579 472.324 558.059 472.452 558.475 472.708C558.891 472.956 559.211 473.3 559.435 473.74C559.659 474.18 559.771 474.676 559.771 475.228C559.771 475.812 559.647 476.328 559.399 476.776C559.151 477.224 558.799 477.572 558.343 477.82C557.887 478.068 557.367 478.192 556.783 478.192ZM560.775 471.592H561.903L561.951 473.02L561.795 472.984C561.883 472.504 562.051 472.128 562.299 471.856C562.555 471.584 562.863 471.448 563.223 471.448C563.591 471.448 563.875 471.58 564.075 471.844C564.283 472.108 564.419 472.508 564.483 473.044H564.327C564.407 472.54 564.571 472.148 564.819 471.868C565.067 471.588 565.383 471.448 565.767 471.448C566.271 471.448 566.635 471.632 566.859 472C567.091 472.36 567.207 472.94 567.207 473.74V478H565.935V473.908C565.935 473.412 565.887 473.064 565.791 472.864C565.695 472.656 565.543 472.552 565.335 472.552C565.183 472.552 565.055 472.604 564.951 472.708C564.847 472.804 564.767 472.952 564.711 473.152C564.655 473.352 564.627 473.608 564.627 473.92V478H563.355V473.908C563.355 473.42 563.307 473.072 563.211 472.864C563.123 472.656 562.971 472.552 562.755 472.552C562.603 472.552 562.475 472.604 562.371 472.708C562.267 472.804 562.187 472.952 562.131 473.152C562.075 473.352 562.047 473.608 562.047 473.92V478H560.775V471.592ZM567.97 471.592H569.098L569.146 473.02L568.99 472.984C569.078 472.504 569.246 472.128 569.494 471.856C569.75 471.584 570.058 471.448 570.418 471.448C570.786 471.448 571.07 471.58 571.27 471.844C571.478 472.108 571.614 472.508 571.678 473.044H571.522C571.602 472.54 571.766 472.148 572.014 471.868C572.262 471.588 572.578 471.448 572.962 471.448C573.466 471.448 573.83 471.632 574.054 472C574.286 472.36 574.402 472.94 574.402 473.74V478H573.13V473.908C573.13 473.412 573.082 473.064 572.986 472.864C572.89 472.656 572.738 472.552 572.53 472.552C572.378 472.552 572.25 472.604 572.146 472.708C572.042 472.804 571.962 472.952 571.906 473.152C571.85 473.352 571.822 473.608 571.822 473.92V478H570.55V473.908C570.55 473.42 570.502 473.072 570.406 472.864C570.318 472.656 570.166 472.552 569.95 472.552C569.798 472.552 569.67 472.604 569.566 472.708C569.462 472.804 569.382 472.952 569.326 473.152C569.27 473.352 569.242 473.608 569.242 473.92V478H567.97V471.592Z" fill="#BA2471"/>
<path d="M476.747 671.192C475.827 671.192 475.107 670.968 474.587 670.52C474.067 670.072 473.787 669.468 473.747 668.708L475.103 668.624C475.151 669.072 475.319 669.408 475.607 669.632C475.895 669.848 476.275 669.956 476.747 669.956C477.251 669.956 477.659 669.844 477.971 669.62C478.291 669.388 478.451 669.032 478.451 668.552C478.451 668.232 478.383 667.964 478.247 667.748C478.119 667.532 477.931 667.372 477.683 667.268C477.435 667.156 477.147 667.1 476.819 667.1H476.111V665.912H476.819C477.219 665.912 477.543 665.816 477.791 665.624C478.047 665.432 478.175 665.14 478.175 664.748C478.175 664.34 478.055 664.036 477.815 663.836C477.575 663.628 477.231 663.524 476.783 663.524C476.319 663.524 475.963 663.62 475.715 663.812C475.475 663.996 475.331 664.264 475.283 664.616L473.903 664.532C473.983 663.844 474.271 663.3 474.767 662.9C475.271 662.492 475.943 662.288 476.783 662.288C477.343 662.288 477.831 662.384 478.247 662.576C478.671 662.76 478.995 663.028 479.219 663.38C479.443 663.732 479.555 664.148 479.555 664.628C479.555 665.164 479.395 665.592 479.075 665.912C478.755 666.232 478.279 666.448 477.647 666.56V666.332C478.327 666.412 478.863 666.656 479.255 667.064C479.647 667.472 479.843 667.992 479.843 668.624C479.843 669.152 479.715 669.608 479.459 669.992C479.203 670.376 478.839 670.672 478.367 670.88C477.903 671.088 477.363 671.192 476.747 671.192ZM484.015 671.192C483.007 671.192 482.235 670.86 481.699 670.196C481.163 669.532 480.895 668.584 480.895 667.352C480.895 666.36 481.011 665.488 481.243 664.736C481.483 663.984 481.859 663.388 482.371 662.948C482.883 662.508 483.539 662.288 484.339 662.288C485.083 662.288 485.679 662.476 486.127 662.852C486.575 663.22 486.887 663.728 487.063 664.376L485.719 664.496C485.615 664.176 485.451 663.932 485.227 663.764C485.011 663.596 484.715 663.512 484.339 663.512C483.923 663.512 483.559 663.636 483.247 663.884C482.935 664.132 482.691 664.508 482.515 665.012C482.347 665.516 482.259 666.136 482.251 666.872L481.963 666.824C482.107 666.384 482.383 666.012 482.791 665.708C483.207 665.396 483.703 665.24 484.279 665.24C484.839 665.24 485.331 665.364 485.755 665.612C486.179 665.86 486.507 666.208 486.739 666.656C486.971 667.104 487.087 667.612 487.087 668.18C487.087 668.796 486.959 669.332 486.703 669.788C486.447 670.244 486.087 670.592 485.623 670.832C485.159 671.072 484.623 671.192 484.015 671.192ZM484.015 669.968C484.535 669.968 484.943 669.812 485.239 669.5C485.543 669.188 485.695 668.748 485.695 668.18C485.695 667.636 485.555 667.208 485.275 666.896C484.995 666.584 484.607 666.428 484.111 666.428C483.759 666.428 483.447 666.5 483.175 666.644C482.903 666.788 482.691 666.992 482.539 667.256C482.387 667.512 482.311 667.82 482.311 668.18C482.311 668.524 482.379 668.832 482.515 669.104C482.659 669.368 482.859 669.58 483.115 669.74C483.379 669.892 483.679 669.968 484.015 669.968ZM491.186 671.192C490.562 671.192 490.022 671.02 489.566 670.676C489.11 670.324 488.758 669.816 488.51 669.152C488.262 668.48 488.138 667.68 488.138 666.752C488.138 665.824 488.262 665.024 488.51 664.352C488.758 663.68 489.11 663.168 489.566 662.816C490.022 662.464 490.562 662.288 491.186 662.288C491.81 662.288 492.35 662.464 492.806 662.816C493.262 663.168 493.614 663.68 493.862 664.352C494.11 665.024 494.234 665.824 494.234 666.752C494.234 667.68 494.11 668.48 493.862 669.152C493.614 669.816 493.262 670.324 492.806 670.676C492.35 671.02 491.81 671.192 491.186 671.192ZM491.186 669.968C491.538 669.968 491.838 669.84 492.086 669.584C492.334 669.328 492.522 668.96 492.65 668.48C492.778 668 492.842 667.424 492.842 666.752C492.842 666.08 492.778 665.504 492.65 665.024C492.522 664.536 492.33 664.164 492.074 663.908C491.826 663.644 491.53 663.512 491.186 663.512C490.842 663.512 490.542 663.644 490.286 663.908C490.038 664.164 489.85 664.536 489.722 665.024C489.594 665.504 489.53 666.08 489.53 666.752C489.53 667.424 489.594 668 489.722 668.48C489.85 668.96 490.038 669.328 490.286 669.584C490.534 669.84 490.834 669.968 491.186 669.968ZM492.302 663.728L493.262 663.812L490.07 669.752L489.11 669.668L492.302 663.728ZM495.165 664.592H496.293L496.341 666.02L496.185 665.984C496.273 665.504 496.441 665.128 496.689 664.856C496.945 664.584 497.253 664.448 497.613 664.448C497.981 664.448 498.265 664.58 498.465 664.844C498.673 665.108 498.809 665.508 498.873 666.044H498.717C498.797 665.54 498.961 665.148 499.209 664.868C499.457 664.588 499.773 664.448 500.157 664.448C500.661 664.448 501.025 664.632 501.249 665C501.481 665.36 501.597 665.94 501.597 666.74V671H500.325V666.908C500.325 666.412 500.277 666.064 500.181 665.864C500.085 665.656 499.933 665.552 499.725 665.552C499.573 665.552 499.445 665.604 499.341 665.708C499.237 665.804 499.157 665.952 499.101 666.152C499.045 666.352 499.017 666.608 499.017 666.92V671H497.745V666.908C497.745 666.42 497.697 666.072 497.601 665.864C497.513 665.656 497.361 665.552 497.145 665.552C496.993 665.552 496.865 665.604 496.761 665.708C496.657 665.804 496.577 665.952 496.521 666.152C496.465 666.352 496.437 666.608 496.437 666.92V671H495.165V664.592ZM502.361 664.592H503.489L503.537 666.02L503.381 665.984C503.469 665.504 503.637 665.128 503.885 664.856C504.141 664.584 504.449 664.448 504.809 664.448C505.177 664.448 505.461 664.58 505.661 664.844C505.869 665.108 506.005 665.508 506.069 666.044H505.913C505.993 665.54 506.157 665.148 506.405 664.868C506.653 664.588 506.969 664.448 507.353 664.448C507.857 664.448 508.221 664.632 508.445 665C508.677 665.36 508.793 665.94 508.793 666.74V671H507.521V666.908C507.521 666.412 507.473 666.064 507.377 665.864C507.281 665.656 507.129 665.552 506.921 665.552C506.769 665.552 506.641 665.604 506.537 665.708C506.433 665.804 506.353 665.952 506.297 666.152C506.241 666.352 506.213 666.608 506.213 666.92V671H504.941V666.908C504.941 666.42 504.893 666.072 504.797 665.864C504.709 665.656 504.557 665.552 504.341 665.552C504.189 665.552 504.061 665.604 503.957 665.708C503.853 665.804 503.773 665.952 503.717 666.152C503.661 666.352 503.633 666.608 503.633 666.92V671H502.361V664.592Z" fill="#BA2471"/>
<path d="M239.624 640.192C238.616 640.192 237.844 639.86 237.308 639.196C236.772 638.532 236.504 637.584 236.504 636.352C236.504 635.36 236.62 634.488 236.852 633.736C237.092 632.984 237.468 632.388 237.98 631.948C238.492 631.508 239.148 631.288 239.948 631.288C240.692 631.288 241.288 631.476 241.736 631.852C242.184 632.22 242.496 632.728 242.672 633.376L241.328 633.496C241.224 633.176 241.06 632.932 240.836 632.764C240.62 632.596 240.324 632.512 239.948 632.512C239.532 632.512 239.168 632.636 238.856 632.884C238.544 633.132 238.3 633.508 238.124 634.012C237.956 634.516 237.868 635.136 237.86 635.872L237.572 635.824C237.716 635.384 237.992 635.012 238.4 634.708C238.816 634.396 239.312 634.24 239.888 634.24C240.448 634.24 240.94 634.364 241.364 634.612C241.788 634.86 242.116 635.208 242.348 635.656C242.58 636.104 242.696 636.612 242.696 637.18C242.696 637.796 242.568 638.332 242.312 638.788C242.056 639.244 241.696 639.592 241.232 639.832C240.768 640.072 240.232 640.192 239.624 640.192ZM239.624 638.968C240.144 638.968 240.552 638.812 240.848 638.5C241.152 638.188 241.304 637.748 241.304 637.18C241.304 636.636 241.164 636.208 240.884 635.896C240.604 635.584 240.216 635.428 239.72 635.428C239.368 635.428 239.056 635.5 238.784 635.644C238.512 635.788 238.3 635.992 238.148 636.256C237.996 636.512 237.92 636.82 237.92 637.18C237.92 637.524 237.988 637.832 238.124 638.104C238.268 638.368 238.468 638.58 238.724 638.74C238.988 638.892 239.288 638.968 239.624 638.968ZM243.579 633.592H244.707L244.755 635.02L244.599 634.984C244.687 634.504 244.855 634.128 245.103 633.856C245.359 633.584 245.667 633.448 246.027 633.448C246.395 633.448 246.679 633.58 246.879 633.844C247.087 634.108 247.223 634.508 247.287 635.044H247.131C247.211 634.54 247.375 634.148 247.623 633.868C247.871 633.588 248.187 633.448 248.571 633.448C249.075 633.448 249.439 633.632 249.663 634C249.895 634.36 250.011 634.94 250.011 635.74V640H248.739V635.908C248.739 635.412 248.691 635.064 248.595 634.864C248.499 634.656 248.347 634.552 248.139 634.552C247.987 634.552 247.859 634.604 247.755 634.708C247.651 634.804 247.571 634.952 247.515 635.152C247.459 635.352 247.431 635.608 247.431 635.92V640H246.159V635.908C246.159 635.42 246.111 635.072 246.015 634.864C245.927 634.656 245.775 634.552 245.559 634.552C245.407 634.552 245.279 634.604 245.175 634.708C245.071 634.804 244.991 634.952 244.935 635.152C244.879 635.352 244.851 635.608 244.851 635.92V640H243.579V633.592ZM250.775 633.592H251.903L251.951 635.02L251.795 634.984C251.883 634.504 252.051 634.128 252.299 633.856C252.555 633.584 252.863 633.448 253.223 633.448C253.591 633.448 253.875 633.58 254.075 633.844C254.283 634.108 254.419 634.508 254.483 635.044H254.327C254.407 634.54 254.571 634.148 254.819 633.868C255.067 633.588 255.383 633.448 255.767 633.448C256.271 633.448 256.635 633.632 256.859 634C257.091 634.36 257.207 634.94 257.207 635.74V640H255.935V635.908C255.935 635.412 255.887 635.064 255.791 634.864C255.695 634.656 255.543 634.552 255.335 634.552C255.183 634.552 255.055 634.604 254.951 634.708C254.847 634.804 254.767 634.952 254.711 635.152C254.655 635.352 254.627 635.608 254.627 635.92V640H253.355V635.908C253.355 635.42 253.307 635.072 253.211 634.864C253.123 634.656 252.971 634.552 252.755 634.552C252.603 634.552 252.475 634.604 252.371 634.708C252.267 634.804 252.187 634.952 252.131 635.152C252.075 635.352 252.047 635.608 252.047 635.92V640H250.775V633.592Z" fill="#BA2471"/>
<path d="M305.195 487L310.195 489.887L310.195 484.113L305.195 487ZM365.195 487L360.195 484.113L360.195 489.887L365.195 487ZM309.695 487L309.695 487.5L360.695 487.5L360.695 487L360.695 486.5L309.695 486.5L309.695 487Z" fill="#BA2471"/>
<path d="M515.195 487L520.195 489.887L520.195 484.113L515.195 487ZM605.195 487L600.195 484.113L600.195 489.887L605.195 487ZM519.695 487L519.695 487.5L600.695 487.5L600.695 487L600.695 486.5L519.695 486.5L519.695 487Z" fill="#BA2471"/>
<path d="M125 650L130 652.887V647.113L125 650ZM845.001 650L840.001 647.113V652.887L845.001 650ZM129.5 650V650.5H840.501V650V649.5H129.5V650Z" fill="#BA2471"/>
<g clip-path="url(#clip0_3389_1031)">
<rect x="125.195" y="505" width="720" height="110" rx="1" fill="white" fill-opacity="0.05"/>
<g clip-path="url(#clip1_3389_1031)">
<rect x="292.195" y="616" width="12" height="58" transform="rotate(-180 292.195 616)" stroke="#8F8F8F" stroke-width="2"/>
<rect x="266.195" y="616" width="12" height="58" transform="rotate(-180 266.195 616)" stroke="#8F8F8F" stroke-width="2"/>
<rect x="216.195" y="520" width="16" height="88" transform="rotate(-90 216.195 520)" stroke="#8F8F8F" stroke-width="2"/>
<rect x="240.195" y="616" width="12" height="58" transform="rotate(-180 240.195 616)" stroke="#8F8F8F" stroke-width="2"/>
</g>
<g clip-path="url(#clip2_3389_1031)">
<rect x="442.195" y="616" width="12" height="58" transform="rotate(-180 442.195 616)" stroke="#8F8F8F" stroke-width="2"/>
<rect x="416.195" y="616" width="12" height="58" transform="rotate(-180 416.195 616)" stroke="#8F8F8F" stroke-width="2"/>
<rect x="366.195" y="520" width="16" height="88" transform="rotate(-90 366.195 520)" stroke="#8F8F8F" stroke-width="2"/>
<rect x="390.195" y="616" width="12" height="58" transform="rotate(-180 390.195 616)" stroke="#8F8F8F" stroke-width="2"/>
</g>
<g clip-path="url(#clip3_3389_1031)">
<rect x="592.195" y="616" width="12" height="58" transform="rotate(-180 592.195 616)" stroke="#8F8F8F" stroke-width="2"/>
<rect x="566.195" y="616" width="12" height="58" transform="rotate(-180 566.195 616)" stroke="#8F8F8F" stroke-width="2"/>
<rect x="516.195" y="520" width="16" height="88" transform="rotate(-90 516.195 520)" stroke="#8F8F8F" stroke-width="2"/>
<rect x="540.195" y="616" width="12" height="58" transform="rotate(-180 540.195 616)" stroke="#8F8F8F" stroke-width="2"/>
</g>
<g clip-path="url(#clip4_3389_1031)">
<rect x="742.195" y="616" width="12" height="58" transform="rotate(-180 742.195 616)" stroke="#8F8F8F" stroke-width="2"/>
<rect x="716.195" y="616" width="12" height="58" transform="rotate(-180 716.195 616)" stroke="#8F8F8F" stroke-width="2"/>
<rect x="666.195" y="520" width="16" height="88" transform="rotate(-90 666.195 520)" stroke="#8F8F8F" stroke-width="2"/>
<rect x="690.195" y="616" width="12" height="58" transform="rotate(-180 690.195 616)" stroke="#8F8F8F" stroke-width="2"/>
</g>
</g>
<rect x="124.195" y="504" width="722" height="112" rx="2" stroke="#8F8F8F" stroke-width="2"/>
<path d="M239 622L244 624.887L244 619.113L239 622ZM254 622L249 619.113L249 624.887L254 622ZM243.5 622L243.5 622.5L249.5 622.5L249.5 622L249.5 621.5L243.5 621.5L243.5 622Z" fill="#BA2471"/>
<defs>
<clipPath id="clip0_3389_1031">
<rect x="125.195" y="505" width="720" height="110" rx="1" fill="white"/>
</clipPath>
<clipPath id="clip1_3389_1031">
<rect width="90" height="114" fill="white" transform="translate(215.195 503)"/>
</clipPath>
<clipPath id="clip2_3389_1031">
<rect width="90" height="114" fill="white" transform="translate(365.195 503)"/>
</clipPath>
<clipPath id="clip3_3389_1031">
<rect width="90" height="114" fill="white" transform="translate(515.195 503)"/>
</clipPath>
<clipPath id="clip4_3389_1031">
<rect width="90" height="114" fill="white" transform="translate(665.195 503)"/>
</clipPath>
</defs>
</svg>
