<svg width="311" height="368" viewBox="0 0 311 368" fill="none" xmlns="http://www.w3.org/2000/svg">
<path d="M19.3121 55.0504L145.612 4.59162C152.281 1.92719 159.719 1.92719 166.388 4.59162L292.688 55.0504C303.324 59.2997 310.3 69.5985 310.3 81.0521V225.796C310.3 227.49 310.157 229.187 309.804 230.844C296.87 291.524 221.956 333.091 168.99 360.896C160.848 365.17 151.153 365.17 143.01 360.896C90.0445 333.091 15.1296 291.524 2.19614 230.844C1.84311 229.187 1.7002 227.49 1.7002 225.796V81.0521C1.7002 69.5985 8.67595 59.2997 19.3121 55.0504Z" fill="url(#paint0_linear_2752_45341)"/>
<path d="M307.372 225.612C304.968 285.842 225.197 332.073 170.919 360.868C162.796 365.177 153.101 365.17 144.958 360.896C92.0248 333.108 17.1684 291.575 4.16792 230.954C3.79717 229.225 3.65553 227.452 3.66962 225.684L4.83208 79.8068C4.45738 74.7937 9.2498 60.9294 20.9704 57.8364" stroke="url(#paint1_linear_2752_45341)" stroke-width="6" stroke-linecap="round"/>
<defs>
<linearGradient id="paint0_linear_2752_45341" x1="125.006" y1="367.697" x2="182.208" y2="56.0237" gradientUnits="userSpaceOnUse">
<stop stop-color="#9ABC9B"/>
<stop offset="1" stop-color="#E0EEDB"/>
</linearGradient>
<linearGradient id="paint1_linear_2752_45341" x1="184.745" y1="57.8364" x2="70.6946" y2="322.99" gradientUnits="userSpaceOnUse">
<stop offset="0.227455" stop-color="#D6E7D2"/>
<stop offset="0.769134" stop-color="#82A486"/>
</linearGradient>
</defs>
</svg>
